Russolo-10ptExtraBold.ufo
<glyph name="exclam" format="2">
  <advance width="609"/>
  <unicode hex="0021"/>
  <note>
exclam
</note>
  <outline>
    <contour>
      <point x="232" y="504" type="curve"/>
      <point x="378" y="504" type="line"/>
      <point x="365" y="735"/>
      <point x="485" y="1021"/>
      <point x="485" y="1176" type="curve" smooth="yes"/>
      <point x="485" y="1336"/>
      <point x="325" y="1227"/>
      <point x="392" y="1466" type="curve"/>
      <point x="218" y="1466" type="line"/>
      <point x="285" y="1228"/>
      <point x="124" y="1336"/>
      <point x="124" y="1176" type="curve" smooth="yes"/>
      <point x="124" y="1020"/>
      <point x="245" y="735"/>
    </contour>
    <contour>
      <point x="305" y="-27" type="curve" smooth="yes"/>
      <point x="420" y="-27"/>
      <point x="501" y="54"/>
      <point x="501" y="169" type="curve" smooth="yes"/>
      <point x="501" y="284"/>
      <point x="420" y="365"/>
      <point x="305" y="365" type="curve" smooth="yes"/>
      <point x="190" y="365"/>
      <point x="109" y="284"/>
      <point x="109" y="169" type="curve" smooth="yes"/>
      <point x="109" y="54"/>
      <point x="190" y="-27"/>
    </contour>
  </outline>
</glyph>
<glyph name="numbersign" format="2">
  <advance width="1569"/>
  <unicode hex="0023"/>
  <note>
numbersign
</note>
  <outline>
    <contour>
      <point x="761" y="-1" type="line"/>
      <point x="1031" y="-1" type="line"/>
      <point x="1365" y="1437" type="line"/>
      <point x="1095" y="1437" type="line"/>
    </contour>
    <contour>
      <point x="122" y="419" type="line"/>
      <point x="1384" y="419" type="line"/>
      <point x="1384" y="616" type="line"/>
      <point x="122" y="616" type="line"/>
    </contour>
    <contour>
      <point x="185" y="-1" type="line"/>
      <point x="456" y="-1" type="line"/>
      <point x="793" y="1437" type="line"/>
      <point x="522" y="1437" type="line"/>
    </contour>
    <contour>
      <point x="184" y="833" type="line"/>
      <point x="1447" y="833" type="line"/>
      <point x="1447" y="1032" type="line"/>
      <point x="184" y="1032" type="line"/>
    </contour>
  </outline>
</glyph>
<glyph name="ampersand" format="2">
  <advance width="1631"/>
  <unicode hex="0026"/>
  <note>
ampersand
</note>
  <guideline x="876" y="1442" angle="90"/>
  <outline>
    <contour>
      <point x="716" y="-34" type="curve" smooth="yes"/>
      <point x="883" y="-34"/>
      <point x="1001" y="-3"/>
      <point x="1098" y="66" type="curve"/>
      <point x="948" y="231" type="line"/>
      <point x="931" y="204"/>
      <point x="758" y="159"/>
      <point x="710" y="159" type="curve" smooth="yes"/>
      <point x="566" y="159"/>
      <point x="523" y="277"/>
      <point x="523" y="422" type="curve" smooth="yes"/>
      <point x="523" y="590"/>
      <point x="598" y="675"/>
      <point x="739" y="670" type="curve"/>
      <point x="748" y="868" type="line"/>
      <point x="654" y="857"/>
      <point x="603" y="927"/>
      <point x="603" y="1059" type="curve" smooth="yes"/>
      <point x="603" y="1185"/>
      <point x="660" y="1271"/>
      <point x="747" y="1271" type="curve" smooth="yes"/>
      <point x="980" y="1271" type="line"/>
      <point x="980" y="1464" type="line"/>
      <point x="743" y="1464" type="line" smooth="yes"/>
      <point x="397" y="1464"/>
      <point x="236" y="1338"/>
      <point x="236" y="1059" type="curve" smooth="yes"/>
      <point x="236" y="947"/>
      <point x="267" y="852"/>
      <point x="320" y="787" type="curve"/>
      <point x="209" y="708"/>
      <point x="134" y="566"/>
      <point x="134" y="416" type="curve" smooth="yes"/>
      <point x="134" y="137"/>
      <point x="359" y="-34"/>
    </contour>
    <contour>
      <point x="1206" y="-32" type="curve" smooth="yes"/>
      <point x="1336" y="-32"/>
      <point x="1419" y="-15"/>
      <point x="1496" y="27" type="curve"/>
      <point x="1496" y="275" type="line"/>
      <point x="1330" y="178"/>
      <point x="1316" y="169"/>
      <point x="1275" y="169" type="curve" smooth="yes"/>
      <point x="1277" y="169"/>
      <point x="1293" y="484"/>
      <point x="1293" y="563" type="curve" smooth="yes"/>
      <point x="1293" y="670" type="line"/>
      <point x="1438" y="670" type="line"/>
      <point x="1438" y="867" type="line"/>
      <point x="1293" y="867" type="line"/>
      <point x="1293" y="1165" type="line"/>
      <point x="1070" y="1165" type="line"/>
      <point x="1112" y="989"/>
      <point x="986" y="867"/>
      <point x="779" y="867" type="curve" smooth="yes"/>
      <point x="713" y="867" type="line"/>
      <point x="692" y="670" type="line"/>
      <point x="911" y="670" type="line"/>
      <point x="911" y="247" type="line" smooth="yes"/>
      <point x="911" y="75"/>
      <point x="1023" y="-32"/>
    </contour>
  </outline>
</glyph>
<glyph name="quotesingle" format="2">
  <advance width="487"/>
  <unicode hex="0027"/>
  <note>
quotesingle
</note>
  <outline>
    <contour>
      <point x="138" y="757" type="line"/>
      <point x="344" y="757" type="line"/>
      <point x="371" y="1368" type="line"/>
      <point x="117" y="1368" type="line"/>
    </contour>
  </outline>
</glyph>
<glyph name="parenleft" format="2">
  <advance width="740"/>
  <unicode hex="0028"/>
  <note>
parenleft
</note>
  <outline>
    <contour>
      <point x="499" y="-387" type="curve"/>
      <point x="645" y="-328" type="line"/>
      <point x="465" y="12"/>
      <point x="377" y="294"/>
      <point x="377" y="602" type="curve" smooth="yes"/>
      <point x="377" y="907"/>
      <point x="462" y="1172"/>
      <point x="644" y="1554" type="curve"/>
      <point x="497" y="1597" type="line"/>
      <point x="234" y="1309"/>
      <point x="102" y="982"/>
      <point x="102" y="614" type="curve" smooth="yes"/>
      <point x="102" y="258"/>
      <point x="228" y="-59"/>
    </contour>
  </outline>
</glyph>
<glyph name="parenright" format="2">
  <advance width="741"/>
  <unicode hex="0029"/>
  <note>
parenright
</note>
  <outline>
    <contour>
      <point x="242" y="-387" type="line"/>
      <point x="514" y="-59"/>
      <point x="639" y="258"/>
      <point x="639" y="614" type="curve" smooth="yes"/>
      <point x="639" y="981"/>
      <point x="506" y="1309"/>
      <point x="243" y="1597" type="curve"/>
      <point x="96" y="1554" type="line"/>
      <point x="279" y="1172"/>
      <point x="363" y="903"/>
      <point x="363" y="602" type="curve" smooth="yes"/>
      <point x="363" y="292"/>
      <point x="274" y="9"/>
      <point x="95" y="-328" type="curve"/>
    </contour>
  </outline>
</glyph>
<glyph name="plus" format="2">
  <advance width="1188"/>
  <unicode hex="002B"/>
  <note>
plus
</note>
  <outline>
    <contour>
      <point x="142" y="492" type="line"/>
      <point x="1046" y="492" type="line"/>
      <point x="1046" y="842" type="line"/>
      <point x="142" y="842" type="line"/>
    </contour>
    <contour>
      <point x="470" y="215" type="line"/>
      <point x="717" y="215" type="line"/>
      <point x="717" y="1119" type="line"/>
      <point x="470" y="1119" type="line"/>
    </contour>
  </outline>
</glyph>
<glyph name="period" format="2">
  <advance width="760"/>
  <unicode hex="002E"/>
  <note>
period
</note>
  <outline>
    <contour>
      <point x="380" y="-27" type="curve" smooth="yes"/>
      <point x="495" y="-27"/>
      <point x="576" y="54"/>
      <point x="576" y="169" type="curve" smooth="yes"/>
      <point x="576" y="284"/>
      <point x="495" y="365"/>
      <point x="380" y="365" type="curve" smooth="yes"/>
      <point x="265" y="365"/>
      <point x="184" y="284"/>
      <point x="184" y="169" type="curve" smooth="yes"/>
      <point x="184" y="54"/>
      <point x="265" y="-27"/>
    </contour>
  </outline>
</glyph>
<glyph name="slash" format="2">
  <advance width="893"/>
  <unicode hex="002F"/>
  <note>
slash
</note>
  <outline>
    <contour>
      <point x="70" y="-383" type="line"/>
      <point x="289" y="-383" type="line"/>
      <point x="823" y="1496" type="line"/>
      <point x="604" y="1496" type="line"/>
    </contour>
  </outline>
</glyph>
<glyph name="zero" format="2">
  <advance width="1561"/>
  <unicode hex="0030"/>
  <note>
zero
</note>
  <anchor x="770" y="714" name="center"/>
  <outline>
    <contour>
      <point x="780" y="-33" type="curve" smooth="yes"/>
      <point x="1164" y="-33"/>
      <point x="1459" y="293"/>
      <point x="1459" y="714" type="curve" smooth="yes"/>
      <point x="1459" y="1107"/>
      <point x="1137" y="1465"/>
      <point x="780" y="1465" type="curve" smooth="yes"/>
      <point x="419" y="1465"/>
      <point x="102" y="1111"/>
      <point x="102" y="714" type="curve" smooth="yes"/>
      <point x="102" y="302"/>
      <point x="404" y="-33"/>
    </contour>
    <contour>
      <point x="780" y="163" type="curve" smooth="yes"/>
      <point x="614" y="163"/>
      <point x="489" y="400"/>
      <point x="489" y="714" type="curve" smooth="yes"/>
      <point x="489" y="1028"/>
      <point x="614" y="1268"/>
      <point x="780" y="1268" type="curve" smooth="yes"/>
      <point x="946" y="1268"/>
      <point x="1073" y="1026"/>
      <point x="1073" y="714" type="curve" smooth="yes"/>
      <point x="1073" y="403"/>
      <point x="947" y="163"/>
    </contour>
  </outline>
</glyph>
<glyph name="one" format="2">
  <advance width="847"/>
  <unicode hex="0031"/>
  <note>
one
</note>
  <outline>
    <contour>
      <point x="347" y="0" type="line"/>
      <point x="715" y="0" type="line"/>
      <point x="715" y="1420" type="line"/>
      <point x="537" y="1420" type="line"/>
      <point x="93" y="856" type="line"/>
      <point x="193" y="769" type="line"/>
      <point x="406" y="971" type="line"/>
      <point x="347" y="1033" type="line"/>
    </contour>
  </outline>
</glyph>
<glyph name="two" format="2">
  <advance width="1355"/>
  <unicode hex="0032"/>
  <note>
two
</note>
  <outline>
    <contour>
      <point x="93" y="0" type="line"/>
      <point x="1253" y="0" type="line"/>
      <point x="1253" y="280" type="line"/>
      <point x="472" y="280" type="line"/>
      <point x="437" y="159" type="line"/>
      <point x="790" y="403"/>
      <point x="949" y="529"/>
      <point x="994" y="568" type="curve" smooth="yes"/>
      <point x="1063" y="627"/>
      <point x="1216" y="735"/>
      <point x="1216" y="980" type="curve" smooth="yes"/>
      <point x="1216" y="1258"/>
      <point x="1040" y="1464"/>
      <point x="699" y="1464" type="curve" smooth="yes"/>
      <point x="375" y="1464"/>
      <point x="172" y="1280"/>
      <point x="172" y="1074" type="curve" smooth="yes"/>
      <point x="172" y="1054"/>
      <point x="174" y="1032"/>
      <point x="185" y="963" type="curve"/>
      <point x="499" y="970" type="line"/>
      <point x="499" y="1051" type="line" smooth="yes"/>
      <point x="499" y="1128"/>
      <point x="533" y="1286"/>
      <point x="679" y="1286" type="curve" smooth="yes"/>
      <point x="743" y="1286"/>
      <point x="863" y="1267"/>
      <point x="863" y="1077" type="curve" smooth="yes"/>
      <point x="863" y="973"/>
      <point x="827" y="711"/>
      <point x="587" y="479" type="curve" smooth="yes"/>
    </contour>
  </outline>
</glyph>
<glyph name="four" format="2">
  <advance width="1376"/>
  <unicode hex="0034"/>
  <note>
four
</note>
  <outline>
    <contour>
      <point x="783" y="0" type="line"/>
      <point x="1084" y="0" type="line"/>
      <point x="1084" y="479" type="line"/>
      <point x="875" y="310" type="line"/>
      <point x="1277" y="310" type="line"/>
      <point x="1277" y="546" type="line"/>
      <point x="875" y="546" type="line"/>
      <point x="1084" y="337" type="line"/>
      <point x="1084" y="781" type="line"/>
      <point x="783" y="781" type="line"/>
      <point x="783" y="337" type="line"/>
      <point x="952" y="546" type="line"/>
      <point x="318" y="546" type="line"/>
      <point x="439" y="430" type="line"/>
      <point x="567" y="775"/>
      <point x="696" y="1119"/>
      <point x="824" y="1464" type="curve"/>
      <point x="547" y="1464" type="line"/>
      <point x="396" y="1079"/>
      <point x="245" y="695"/>
      <point x="94" y="310" type="curve"/>
      <point x="952" y="310" type="line"/>
      <point x="783" y="479" type="line"/>
    </contour>
  </outline>
</glyph>
<glyph name="five" format="2">
  <advance width="1239"/>
  <unicode hex="0035"/>
  <note>
five
</note>
  <outline>
    <contour>
      <point x="584" y="-39" type="curve" smooth="yes"/>
      <point x="922" y="-39"/>
      <point x="1140" y="201"/>
      <point x="1140" y="466" type="curve" smooth="yes"/>
      <point x="1140" y="734"/>
      <point x="883" y="899"/>
      <point x="617" y="899" type="curve" smooth="yes"/>
      <point x="445" y="899"/>
      <point x="365" y="824"/>
      <point x="286" y="736" type="curve"/>
      <point x="375" y="733" type="line"/>
      <point x="468" y="1281" type="line"/>
      <point x="255" y="1156" type="line"/>
      <point x="1022" y="1156" type="line"/>
      <point x="1022" y="1430" type="line"/>
      <point x="286" y="1430" type="line"/>
      <point x="162" y="702" type="line"/>
      <point x="304" y="615" type="line"/>
      <point x="374" y="670"/>
      <point x="495" y="686"/>
      <point x="543" y="686" type="curve" smooth="yes"/>
      <point x="741" y="686"/>
      <point x="801" y="602"/>
      <point x="801" y="432" type="curve" smooth="yes"/>
      <point x="801" y="239"/>
      <point x="711" y="172"/>
      <point x="572" y="172" type="curve" smooth="yes"/>
      <point x="420" y="172"/>
      <point x="246" y="251"/>
      <point x="163" y="303" type="curve"/>
      <point x="94" y="141" type="line"/>
      <point x="200" y="62"/>
      <point x="365" y="-39"/>
    </contour>
  </outline>
</glyph>
<glyph name="six" format="2">
  <advance width="1288"/>
  <unicode hex="0036"/>
  <note>
six
</note>
  <outline>
    <contour>
      <point x="654" y="-32" type="curve" smooth="yes"/>
      <point x="1014" y="-32"/>
      <point x="1187" y="156"/>
      <point x="1187" y="450" type="curve" smooth="yes"/>
      <point x="1187" y="744"/>
      <point x="1013" y="941"/>
      <point x="682" y="941" type="curve" smooth="yes"/>
      <point x="585" y="941"/>
      <point x="405" y="915"/>
      <point x="265" y="720" type="curve"/>
      <point x="411" y="749" type="line"/>
      <point x="421" y="853"/>
      <point x="439" y="880"/>
      <point x="483" y="975" type="curve" smooth="yes"/>
      <point x="547" y="1114"/>
      <point x="667" y="1234"/>
      <point x="884" y="1244" type="curve"/>
      <point x="880" y="1487" type="line"/>
      <point x="486" y="1473"/>
      <point x="310" y="1234"/>
      <point x="234" y="1087" type="curve" smooth="yes"/>
      <point x="118" y="864"/>
      <point x="104" y="616"/>
      <point x="104" y="515" type="curve" smooth="yes"/>
      <point x="104" y="119"/>
      <point x="333" y="-32"/>
    </contour>
    <contour>
      <point x="659" y="189" type="curve" smooth="yes"/>
      <point x="527" y="189"/>
      <point x="448" y="294"/>
      <point x="448" y="458" type="curve" smooth="yes"/>
      <point x="448" y="649"/>
      <point x="565" y="708"/>
      <point x="672" y="708" type="curve" smooth="yes"/>
      <point x="805" y="708"/>
      <point x="857" y="615"/>
      <point x="857" y="455" type="curve" smooth="yes"/>
      <point x="857" y="265"/>
      <point x="771" y="189"/>
    </contour>
  </outline>
</glyph>
<glyph name="seven" format="2">
  <advance width="1305"/>
  <unicode hex="0037"/>
  <note>
seven
</note>
  <outline>
    <contour>
      <point x="364" y="0" type="curve"/>
      <point x="691" y="0" type="line"/>
      <point x="815" y="570"/>
      <point x="1007" y="1066"/>
      <point x="1212" y="1424" type="curve"/>
      <point x="101" y="1424" type="line"/>
      <point x="101" y="1134" type="line"/>
      <point x="940" y="1134" type="line"/>
      <point x="842" y="1277" type="line"/>
      <point x="714" y="1088"/>
      <point x="530" y="616"/>
    </contour>
  </outline>
</glyph>
<glyph name="eight" format="2">
  <advance width="1287"/>
  <unicode hex="0038"/>
  <note>
eight
</note>
  <outline>
    <contour>
      <point x="619" y="-32" type="curve" smooth="yes"/>
      <point x="970" y="-32"/>
      <point x="1188" y="136"/>
      <point x="1188" y="409" type="curve" smooth="yes"/>
      <point x="1188" y="642"/>
      <point x="1013" y="794"/>
      <point x="686" y="894" type="curve" smooth="yes"/>
      <point x="555" y="934"/>
      <point x="475" y="1002"/>
      <point x="475" y="1107" type="curve" smooth="yes"/>
      <point x="475" y="1211"/>
      <point x="551" y="1284"/>
      <point x="692" y="1284" type="curve" smooth="yes"/>
      <point x="832" y="1284"/>
      <point x="881" y="1192"/>
      <point x="881" y="1098" type="curve" smooth="yes"/>
      <point x="881" y="1023"/>
      <point x="878" y="912"/>
      <point x="430" y="812" type="curve"/>
      <point x="794" y="731" type="line"/>
      <point x="975" y="784"/>
      <point x="1099" y="913"/>
      <point x="1099" y="1089" type="curve" smooth="yes"/>
      <point x="1099" y="1304"/>
      <point x="900" y="1453"/>
      <point x="646" y="1452" type="curve" smooth="yes"/>
      <point x="359" y="1451"/>
      <point x="166" y="1296"/>
      <point x="166" y="1061" type="curve" smooth="yes"/>
      <point x="166" y="852"/>
      <point x="327" y="696"/>
      <point x="557" y="624" type="curve" smooth="yes"/>
      <point x="781" y="554"/>
      <point x="864" y="500"/>
      <point x="864" y="385" type="curve" smooth="yes"/>
      <point x="864" y="224"/>
      <point x="763" y="147"/>
      <point x="589" y="147" type="curve" smooth="yes"/>
      <point x="411" y="147"/>
      <point x="341" y="253"/>
      <point x="340" y="373" type="curve" smooth="yes"/>
      <point x="339" y="475"/>
      <point x="349" y="588"/>
      <point x="640" y="736" type="curve"/>
      <point x="425" y="804" type="line"/>
      <point x="218" y="734"/>
      <point x="99" y="579"/>
      <point x="99" y="377" type="curve" smooth="yes"/>
      <point x="99" y="115"/>
      <point x="287" y="-32"/>
    </contour>
  </outline>
</glyph>
<glyph name="B" format="2">
  <advance width="1437"/>
  <unicode hex="0042"/>
  <note>
B
</note>
  <anchor x="691" y="50" name="bottom"/>
  <anchor x="691" y="1430" name="top"/>
  <outline>
    <contour>
      <point x="138" y="0" type="line"/>
      <point x="629" y="0" type="line" smooth="yes"/>
      <point x="1116" y="0"/>
      <point x="1332" y="132"/>
      <point x="1332" y="442" type="curve" smooth="yes"/>
      <point x="1332" y="651"/>
      <point x="1214" y="771"/>
      <point x="987" y="817" type="curve"/>
      <point x="967" y="701" type="line"/>
      <point x="1169" y="765"/>
      <point x="1257" y="859"/>
      <point x="1257" y="1019" type="curve" smooth="yes"/>
      <point x="1257" y="1295"/>
      <point x="1042" y="1437"/>
      <point x="629" y="1437" type="curve" smooth="yes"/>
      <point x="138" y="1437" type="line"/>
    </contour>
    <contour>
      <point x="525" y="11" type="line"/>
      <point x="525" y="813" type="line"/>
      <point x="392" y="660" type="line"/>
      <point x="681" y="660" type="line" smooth="yes"/>
      <point x="822" y="660"/>
      <point x="911" y="574"/>
      <point x="911" y="441" type="curve" smooth="yes"/>
      <point x="911" y="293"/>
      <point x="797" y="193"/>
      <point x="629" y="193" type="curve" smooth="yes"/>
      <point x="192" y="193" type="line"/>
    </contour>
    <contour>
      <point x="525" y="699" type="line"/>
      <point x="525" y="1412" type="line"/>
      <point x="193" y="1244" type="line"/>
      <point x="629" y="1244" type="line" smooth="yes"/>
      <point x="818" y="1244"/>
      <point x="847" y="1092"/>
      <point x="847" y="1000" type="curve" smooth="yes"/>
      <point x="847" y="888"/>
      <point x="797" y="854"/>
      <point x="629" y="854" type="curve" smooth="yes"/>
      <point x="434" y="854" type="line"/>
    </contour>
  </outline>
</glyph>
<glyph name="C" format="2">
  <advance width="1722"/>
  <unicode hex="0043"/>
  <note>
C
</note>
  <anchor x="824" y="50" name="bottom"/>
  <anchor x="874" y="1430" name="top"/>
  <outline>
    <contour>
      <point x="887" y="-44" type="curve" smooth="yes"/>
      <point x="1220" y="-44"/>
      <point x="1499" y="134"/>
      <point x="1621" y="443" type="curve"/>
      <point x="1240" y="443" type="line"/>
      <point x="1169" y="254"/>
      <point x="1046" y="155"/>
      <point x="882" y="155" type="curve" smooth="yes"/>
      <point x="637" y="155"/>
      <point x="479" y="370"/>
      <point x="479" y="709" type="curve" smooth="yes"/>
      <point x="479" y="1049"/>
      <point x="638" y="1268"/>
      <point x="882" y="1268" type="curve" smooth="yes"/>
      <point x="1047" y="1268"/>
      <point x="1169" y="1169"/>
      <point x="1235" y="981" type="curve"/>
      <point x="1602" y="981" type="line"/>
      <point x="1533" y="1261"/>
      <point x="1208" y="1466"/>
      <point x="880" y="1466" type="curve" smooth="yes"/>
      <point x="444" y="1466"/>
      <point x="107" y="1129"/>
      <point x="107" y="712" type="curve" smooth="yes"/>
      <point x="107" y="293"/>
      <point x="444" y="-44"/>
    </contour>
  </outline>
</glyph>
<glyph name="F" format="2">
  <advance width="1236"/>
  <unicode hex="0046"/>
  <note>
F
</note>
  <anchor x="585" y="50" name="bottom"/>
  <anchor x="585" y="1430" name="top"/>
  <outline>
    <contour>
      <point x="138" y="0" type="line"/>
      <point x="525" y="0" type="line"/>
      <point x="525" y="799" type="line"/>
      <point x="192" y="617" type="line"/>
      <point x="1125" y="617" type="line"/>
      <point x="1125" y="808" type="line"/>
      <point x="192" y="808" type="line"/>
      <point x="525" y="617" type="line"/>
      <point x="525" y="1412" type="line"/>
      <point x="192" y="1244" type="line"/>
      <point x="1125" y="1244" type="line"/>
      <point x="1125" y="1437" type="line"/>
      <point x="138" y="1437" type="line"/>
    </contour>
  </outline>
</glyph>
<glyph name="H" format="2">
  <advance width="1630"/>
  <unicode hex="0048"/>
  <note>
H
</note>
  <anchor x="815" y="50" name="bottom"/>
  <anchor x="815" y="715" name="center"/>
  <anchor x="815" y="1430" name="top"/>
  <anchor x="26" y="1430" name="topleft"/>
  <outline>
    <contour>
      <point x="138" y="0" type="line"/>
      <point x="514" y="0" type="line"/>
      <point x="514" y="850" type="line"/>
      <point x="188" y="639" type="line"/>
      <point x="1443" y="639" type="line"/>
      <point x="1116" y="850" type="line"/>
      <point x="1116" y="0" type="line"/>
      <point x="1492" y="0" type="line"/>
      <point x="1492" y="1437" type="line"/>
      <point x="1116" y="1437" type="line"/>
      <point x="1116" y="624" type="line"/>
      <point x="1443" y="835" type="line"/>
      <point x="188" y="835" type="line"/>
      <point x="514" y="624" type="line"/>
      <point x="514" y="1437" type="line"/>
      <point x="138" y="1437" type="line"/>
    </contour>
  </outline>
</glyph>
<glyph name="I" format="2">
  <advance width="663"/>
  <unicode hex="0049"/>
  <note>
I
</note>
  <anchor x="332" y="50" name="bottom"/>
  <anchor x="394" y="0" name="ogonek"/>
  <anchor x="332" y="1430" name="top"/>
  <anchor x="24" y="1430" name="topleft"/>
  <outline>
    <contour>
      <point x="138" y="0" type="line"/>
      <point x="525" y="0" type="line"/>
      <point x="525" y="1437" type="line"/>
      <point x="138" y="1437" type="line"/>
    </contour>
  </outline>
</glyph>
<glyph name="J" format="2">
  <advance width="1091"/>
  <unicode hex="004A"/>
  <note>
J
</note>
  <anchor x="587" y="50" name="bottom"/>
  <anchor x="587" y="1430" name="top"/>
  <outline>
    <contour>
      <point x="105" y="-1" type="line"/>
      <point x="183" y="-80"/>
      <point x="365" y="-155"/>
      <point x="527" y="-155" type="curve" smooth="yes"/>
      <point x="811" y="-155"/>
      <point x="959" y="75"/>
      <point x="959" y="442" type="curve" smooth="yes"/>
      <point x="959" y="1437" type="line"/>
      <point x="573" y="1437" type="line"/>
      <point x="573" y="390" type="line" smooth="yes"/>
      <point x="573" y="106"/>
      <point x="589" y="56"/>
      <point x="481" y="56" type="curve" smooth="yes"/>
      <point x="335" y="56"/>
      <point x="199" y="147"/>
      <point x="105" y="224" type="curve"/>
    </contour>
  </outline>
</glyph>
<glyph name="M" format="2">
  <advance width="1883"/>
  <unicode hex="004D"/>
  <note>
M
</note>
  <anchor x="942" y="50" name="bottom"/>
  <anchor x="942" y="1430" name="top"/>
  <outline>
    <contour>
      <point x="138" y="0" type="line"/>
      <point x="438" y="0" type="line"/>
      <point x="438" y="1133" type="line"/>
      <point x="248" y="1079" type="line"/>
      <point x="904" y="-9" type="line"/>
      <point x="1530" y="1173" type="line"/>
      <point x="1369" y="1060" type="line"/>
      <point x="1369" y="0" type="line"/>
      <point x="1745" y="0" type="line"/>
      <point x="1745" y="1437" type="line"/>
      <point x="1334" y="1437" type="line"/>
      <point x="765" y="373" type="line"/>
      <point x="1062" y="422" type="line"/>
      <point x="458" y="1437" type="line"/>
      <point x="138" y="1437" type="line"/>
    </contour>
  </outline>
</glyph>
<glyph name="N" format="2">
  <advance width="1609"/>
  <unicode hex="004E"/>
  <note>
N
</note>
  <anchor x="805" y="50" name="bottom"/>
  <anchor x="805" y="1430" name="top"/>
  <outline>
    <contour>
      <point x="151" y="0" type="line"/>
      <point x="447" y="0" type="line"/>
      <point x="447" y="960" type="line"/>
      <point x="241" y="1054" type="line"/>
      <point x="1165" y="0" type="line"/>
      <point x="1471" y="0" type="line"/>
      <point x="1471" y="1437" type="line"/>
      <point x="1172" y="1437" type="line"/>
      <point x="1172" y="345" type="line"/>
      <point x="1352" y="370" type="line"/>
      <point x="439" y="1437" type="line"/>
      <point x="138" y="1437" type="line"/>
    </contour>
  </outline>
</glyph>
<glyph name="O" format="2">
  <advance width="1782"/>
  <unicode hex="004F"/>
  <note>
O
</note>
  <anchor x="891" y="0" name="bottom"/>
  <anchor x="891" y="715" name="center"/>
  <anchor x="1082" y="0" name="ogonek"/>
  <anchor x="891" y="1430" name="top"/>
  <anchor x="64" y="1430" name="topleft"/>
  <anchor x="1718" y="1430" name="topright"/>
  <outline>
    <contour>
      <point x="892" y="-44" type="curve" smooth="yes"/>
      <point x="1342" y="-44"/>
      <point x="1674" y="281"/>
      <point x="1674" y="707" type="curve" smooth="yes"/>
      <point x="1674" y="1134"/>
      <point x="1338" y="1466"/>
      <point x="892" y="1466" type="curve" smooth="yes"/>
      <point x="447" y="1466"/>
      <point x="108" y="1133"/>
      <point x="108" y="707" type="curve" smooth="yes"/>
      <point x="108" y="281"/>
      <point x="442" y="-44"/>
    </contour>
    <contour>
      <point x="892" y="146" type="curve" smooth="yes"/>
      <point x="650" y="146"/>
      <point x="491" y="368"/>
      <point x="491" y="706" type="curve" smooth="yes"/>
      <point x="491" y="1047"/>
      <point x="652" y="1277"/>
      <point x="892" y="1277" type="curve" smooth="yes"/>
      <point x="1131" y="1277"/>
      <point x="1292" y="1047"/>
      <point x="1292" y="706" type="curve" smooth="yes"/>
      <point x="1292" y="367"/>
      <point x="1134" y="146"/>
    </contour>
  </outline>
</glyph>
<glyph name="S" format="2">
  <advance width="1385"/>
  <unicode hex="0053"/>
  <note>
S
</note>
  <anchor x="693" y="50" name="bottom"/>
  <anchor x="693" y="1430" name="top"/>
  <outline>
    <contour>
      <point x="695" y="-41" type="curve" smooth="yes"/>
      <point x="1087" y="-41"/>
      <point x="1279" y="118"/>
      <point x="1279" y="444" type="curve" smooth="yes"/>
      <point x="1279" y="684"/>
      <point x="1113" y="798"/>
      <point x="743" y="874" type="curve" smooth="yes"/>
      <point x="543" y="915"/>
      <point x="502" y="1012"/>
      <point x="502" y="1073" type="curve" smooth="yes"/>
      <point x="502" y="1235"/>
      <point x="578" y="1260"/>
      <point x="670" y="1260" type="curve" smooth="yes"/>
      <point x="867" y="1260"/>
      <point x="887" y="1122"/>
      <point x="879" y="1063" type="curve"/>
      <point x="1238" y="1063" type="line"/>
      <point x="1226" y="1294"/>
      <point x="1011" y="1466"/>
      <point x="687" y="1466" type="curve" smooth="yes"/>
      <point x="309" y="1466"/>
      <point x="145" y="1319"/>
      <point x="145" y="1026" type="curve" smooth="yes"/>
      <point x="145" y="820"/>
      <point x="324" y="671"/>
      <point x="628" y="598" type="curve" smooth="yes"/>
      <point x="843" y="546"/>
      <point x="936" y="515"/>
      <point x="936" y="377" type="curve" smooth="yes"/>
      <point x="936" y="246"/>
      <point x="847" y="172"/>
      <point x="709" y="172" type="curve" smooth="yes"/>
      <point x="547" y="172"/>
      <point x="455" y="295"/>
      <point x="452" y="399" type="curve"/>
      <point x="102" y="399" type="line"/>
      <point x="104" y="154"/>
      <point x="306" y="-41"/>
    </contour>
  </outline>
</glyph>
<glyph name="T" format="2">
  <advance width="1541"/>
  <unicode hex="0054"/>
  <note>
T
</note>
  <anchor x="771" y="50" name="bottom"/>
  <anchor x="771" y="715" name="center"/>
  <anchor x="771" y="1430" name="top"/>
  <outline>
    <contour>
      <point x="577" y="0" type="line"/>
      <point x="964" y="0" type="line"/>
      <point x="964" y="1401" type="line"/>
      <point x="632" y="1144" type="line"/>
      <point x="1434" y="1144" type="line"/>
      <point x="1434" y="1437" type="line"/>
      <point x="107" y="1437" type="line"/>
      <point x="107" y="1144" type="line"/>
      <point x="909" y="1144" type="line"/>
      <point x="577" y="1401" type="line"/>
    </contour>
  </outline>
</glyph>
<glyph name="U" format="2">
  <advance width="1607"/>
  <unicode hex="0055"/>
  <note>
U
</note>
  <anchor x="804" y="50" name="bottom"/>
  <anchor x="970" y="0" name="ogonek"/>
  <anchor x="804" y="1430" name="top"/>
  <anchor x="1614" y="1430" name="topright"/>
  <outline>
    <contour>
      <point x="803" y="-42" type="curve" smooth="yes"/>
      <point x="1173" y="-42"/>
      <point x="1480" y="222"/>
      <point x="1480" y="503" type="curve" smooth="yes"/>
      <point x="1480" y="1437" type="line"/>
      <point x="1177" y="1437" type="line"/>
      <point x="1168" y="486" type="line" smooth="yes"/>
      <point x="1166" y="321"/>
      <point x="1062" y="152"/>
      <point x="805" y="152" type="curve" smooth="yes"/>
      <point x="586" y="152"/>
      <point x="477" y="263"/>
      <point x="477" y="520" type="curve" smooth="yes"/>
      <point x="477" y="1437" type="line"/>
      <point x="127" y="1437" type="line"/>
      <point x="127" y="529" type="line" smooth="yes"/>
      <point x="127" y="229"/>
      <point x="428" y="-42"/>
    </contour>
  </outline>
</glyph>
<glyph name="V" format="2">
  <advance width="1619"/>
  <unicode hex="0056"/>
  <note>
V
</note>
  <anchor x="810" y="50" name="bottom"/>
  <anchor x="810" y="1430" name="top"/>
  <outline>
    <contour>
      <point x="810" y="-26" type="line"/>
      <point x="1519" y="1437" type="line"/>
      <point x="1262" y="1437" type="line"/>
      <point x="779" y="424" type="line"/>
      <point x="939" y="491" type="line"/>
      <point x="486" y="1437" type="line"/>
      <point x="100" y="1437" type="line"/>
    </contour>
  </outline>
</glyph>
<glyph name="W" format="2">
  <advance width="2150"/>
  <unicode hex="0057"/>
  <note>
W
</note>
  <anchor x="1075" y="0" name="bottom"/>
  <anchor x="1075" y="1437" name="top"/>
  <outline>
    <contour>
      <point x="1446" y="-14" type="line"/>
      <point x="2050" y="1437" type="line"/>
      <point x="1889" y="1437" type="line"/>
      <point x="1440" y="386" type="line"/>
      <point x="1545" y="561" type="line"/>
      <point x="1128" y="1437" type="line"/>
      <point x="744" y="1437" type="line"/>
    </contour>
    <contour>
      <point x="795" y="-14" type="line"/>
      <point x="1169" y="889" type="line"/>
      <point x="1115" y="1165" type="line"/>
      <point x="791" y="389" type="line"/>
      <point x="904" y="548" type="line"/>
      <point x="485" y="1437" type="line"/>
      <point x="100" y="1437" type="line"/>
    </contour>
    <contour>
      <point x="1195" y="830" type="line"/>
      <point x="1430" y="1437" type="line"/>
      <point x="1268" y="1437" type="line"/>
      <point x="1140" y="1108" type="line"/>
    </contour>
  </outline>
</glyph>
<glyph name="X" format="2">
  <advance width="1684"/>
  <unicode hex="0058"/>
  <note>
X
</note>
  <anchor x="838" y="50" name="bottom"/>
  <anchor x="838" y="1430" name="top"/>
  <outline>
    <contour>
      <point x="1109" y="0" type="line"/>
      <point x="1585" y="0" type="line"/>
      <point x="575" y="1427" type="line"/>
      <point x="100" y="1427" type="line"/>
    </contour>
    <contour>
      <point x="120" y="0" type="line"/>
      <point x="380" y="0" type="line"/>
      <point x="922" y="750" type="line"/>
      <point x="770" y="916" type="line"/>
    </contour>
    <contour>
      <point x="855" y="613" type="line"/>
      <point x="1439" y="1437" type="line"/>
      <point x="1180" y="1437" type="line"/>
      <point x="701" y="779" type="line"/>
    </contour>
  </outline>
</glyph>
<glyph name="Z" format="2">
  <advance width="1514"/>
  <unicode hex="005A"/>
  <note>
Z
</note>
  <anchor x="757" y="50" name="bottom"/>
  <anchor x="757" y="715" name="center"/>
  <anchor x="757" y="1430" name="top"/>
  <outline>
    <contour>
      <point x="99" y="0" type="line"/>
      <point x="1379" y="0" type="line"/>
      <point x="1379" y="263" type="line"/>
      <point x="258" y="263" type="line"/>
      <point x="496" y="15" type="line"/>
      <point x="1412" y="1437" type="line"/>
      <point x="178" y="1437" type="line"/>
      <point x="178" y="1174" type="line"/>
      <point x="1186" y="1174" type="line"/>
      <point x="1011" y="1417" type="line"/>
    </contour>
  </outline>
</glyph>
<glyph name="bracketleft" format="2">
  <advance width="737"/>
  <unicode hex="005B"/>
  <note>
bracketleft
</note>
  <outline>
    <contour>
      <point x="134" y="-383" type="line"/>
      <point x="633" y="-383" type="line"/>
      <point x="633" y="-155" type="line"/>
      <point x="380" y="-155" type="line"/>
      <point x="380" y="1239" type="line"/>
      <point x="633" y="1239" type="line"/>
      <point x="633" y="1466" type="line"/>
      <point x="134" y="1466" type="line"/>
    </contour>
  </outline>
</glyph>
<glyph name="bracketright" format="2">
  <advance width="737"/>
  <unicode hex="005D"/>
  <note>
bracketright
</note>
  <outline>
    <contour>
      <point x="104" y="-383" type="line"/>
      <point x="603" y="-383" type="line"/>
      <point x="603" y="1466" type="line"/>
      <point x="104" y="1466" type="line"/>
      <point x="104" y="1239" type="line"/>
      <point x="357" y="1239" type="line"/>
      <point x="357" y="-155" type="line"/>
      <point x="104" y="-155" type="line"/>
    </contour>
  </outline>
</glyph>
<glyph name="asciicircum" format="2">
  <advance width="1366"/>
  <unicode hex="005E"/>
  <note>
asciicircum
</note>
  <outline>
    <contour>
      <point x="130" y="747" type="line"/>
      <point x="427" y="747" type="line"/>
      <point x="784" y="1282" type="line"/>
      <point x="577" y="1287" type="line"/>
      <point x="939" y="747" type="line"/>
      <point x="1236" y="747" type="line"/>
      <point x="794" y="1433" type="line"/>
      <point x="572" y="1433" type="line"/>
    </contour>
  </outline>
</glyph>
<glyph name="b" format="2">
  <advance width="1417"/>
  <unicode hex="0062"/>
  <note>
b
</note>
  <anchor x="715" y="70" name="bottom"/>
  <anchor x="715" y="1524" name="top"/>
  <outline>
    <contour>
      <point x="824" y="-33" type="curve" smooth="yes"/>
      <point x="1135" y="-33"/>
      <point x="1337" y="178"/>
      <point x="1337" y="499" type="curve" smooth="yes"/>
      <point x="1337" y="828"/>
      <point x="1138" y="1043"/>
      <point x="830" y="1043" type="curve" smooth="yes"/>
      <point x="580" y="1043"/>
      <point x="431" y="910"/>
      <point x="386" y="643" type="curve"/>
      <point x="478" y="567" type="line"/>
      <point x="478" y="1524" type="line"/>
      <point x="112" y="1524" type="line"/>
      <point x="112" y="0" type="line"/>
      <point x="474" y="0" type="line"/>
      <point x="474" y="434" type="line"/>
      <point x="379" y="360" type="line"/>
      <point x="432" y="92"/>
      <point x="571" y="-33"/>
    </contour>
    <contour>
      <point x="767" y="170" type="curve" smooth="yes"/>
      <point x="624" y="170"/>
      <point x="527" y="321"/>
      <point x="527" y="495" type="curve" smooth="yes"/>
      <point x="527" y="682"/>
      <point x="629" y="840"/>
      <point x="772" y="840" type="curve" smooth="yes"/>
      <point x="915" y="840"/>
      <point x="990" y="740"/>
      <point x="990" y="503" type="curve" smooth="yes"/>
      <point x="990" y="268"/>
      <point x="914" y="170"/>
    </contour>
  </outline>
</glyph>
<glyph name="c" format="2">
  <advance width="1125"/>
  <unicode hex="0063"/>
  <note>
c
</note>
  <anchor x="563" y="-20" name="bottom"/>
  <anchor x="653" y="1026" name="top"/>
  <outline>
    <contour>
      <point x="648" y="-42" type="curve" smooth="yes"/>
      <point x="796" y="-42"/>
      <point x="929" y="0"/>
      <point x="1038" y="96" type="curve"/>
      <point x="1038" y="315" type="line"/>
      <point x="930" y="227"/>
      <point x="783" y="161"/>
      <point x="665" y="161" type="curve" smooth="yes"/>
      <point x="508" y="161"/>
      <point x="443" y="284"/>
      <point x="443" y="496" type="curve" smooth="yes"/>
      <point x="443" y="726"/>
      <point x="509" y="840"/>
      <point x="665" y="840" type="curve" smooth="yes"/>
      <point x="784" y="840"/>
      <point x="930" y="774"/>
      <point x="1038" y="686" type="curve"/>
      <point x="1038" y="905" type="line"/>
      <point x="929" y="1001"/>
      <point x="794" y="1043"/>
      <point x="648" y="1043" type="curve" smooth="yes"/>
      <point x="307" y="1043"/>
      <point x="80" y="811"/>
      <point x="80" y="496" type="curve" smooth="yes"/>
      <point x="80" y="179"/>
      <point x="309" y="-42"/>
    </contour>
  </outline>
</glyph>
<glyph name="d" format="2">
  <advance width="1417"/>
  <unicode hex="0064"/>
  <note>
d
</note>
  <anchor x="703" y="70" name="bottom"/>
  <anchor x="1118" y="1340" name="center"/>
  <anchor x="703" y="1524" name="top"/>
  <anchor x="1406" y="1524" name="topright"/>
  <outline>
    <contour>
      <point x="593" y="-33" type="curve" smooth="yes"/>
      <point x="846" y="-33"/>
      <point x="985" y="92"/>
      <point x="1038" y="360" type="curve"/>
      <point x="943" y="434" type="line"/>
      <point x="943" y="0" type="line"/>
      <point x="1305" y="0" type="line"/>
      <point x="1305" y="1524" type="line"/>
      <point x="939" y="1524" type="line"/>
      <point x="939" y="567" type="line"/>
      <point x="1031" y="643" type="line"/>
      <point x="986" y="910"/>
      <point x="837" y="1043"/>
      <point x="587" y="1043" type="curve" smooth="yes"/>
      <point x="279" y="1043"/>
      <point x="80" y="828"/>
      <point x="80" y="499" type="curve" smooth="yes"/>
      <point x="80" y="178"/>
      <point x="282" y="-33"/>
    </contour>
    <contour>
      <point x="650" y="170" type="curve" smooth="yes"/>
      <point x="503" y="170"/>
      <point x="427" y="268"/>
      <point x="427" y="503" type="curve" smooth="yes"/>
      <point x="427" y="740"/>
      <point x="502" y="840"/>
      <point x="645" y="840" type="curve" smooth="yes"/>
      <point x="788" y="840"/>
      <point x="890" y="682"/>
      <point x="890" y="495" type="curve" smooth="yes"/>
      <point x="890" y="321"/>
      <point x="793" y="170"/>
    </contour>
  </outline>
</glyph>
<glyph name="e" format="2">
  <advance width="1272"/>
  <unicode hex="0065"/>
  <note>
e
</note>
  <anchor x="635" y="-30" name="bottom"/>
  <anchor x="833" y="10" name="ogonek"/>
  <anchor x="635" y="1026" name="top"/>
  <outline>
    <contour>
      <point x="645" y="-42" type="curve" smooth="yes"/>
      <point x="918" y="-42"/>
      <point x="1095" y="81"/>
      <point x="1166" y="291" type="curve"/>
      <point x="872" y="291" type="line"/>
      <point x="862" y="243"/>
      <point x="768" y="161"/>
      <point x="655" y="161" type="curve" smooth="yes"/>
      <point x="492" y="161"/>
      <point x="446" y="348"/>
      <point x="446" y="498" type="curve" smooth="yes"/>
      <point x="446" y="687"/>
      <point x="522" y="839"/>
      <point x="645" y="839" type="curve" smooth="yes"/>
      <point x="754" y="839"/>
      <point x="812" y="719"/>
      <point x="831" y="477" type="curve"/>
      <point x="1198" y="477" type="line"/>
      <point x="1161" y="851"/>
      <point x="961" y="1043"/>
      <point x="639" y="1043" type="curve" smooth="yes"/>
      <point x="292" y="1043"/>
      <point x="80" y="831"/>
      <point x="80" y="502" type="curve" smooth="yes"/>
      <point x="80" y="175"/>
      <point x="285" y="-42"/>
    </contour>
    <contour>
      <point x="429" y="476" type="line"/>
      <point x="1120" y="477" type="line"/>
      <point x="1120" y="643" type="line"/>
      <point x="353" y="643" type="line"/>
    </contour>
  </outline>
</glyph>
<glyph name="f" format="2">
  <advance width="1127"/>
  <unicode hex="0066"/>
  <note>
f
</note>
  <anchor x="564" y="70" name="bottom"/>
  <anchor x="564" y="1524" name="top"/>
  <outline>
    <contour>
      <point x="293" y="0" type="line"/>
      <point x="655" y="0" type="line"/>
      <point x="655" y="978" type="line" smooth="yes"/>
      <point x="655" y="1138"/>
      <point x="559" y="1352"/>
      <point x="712" y="1352" type="curve" smooth="yes"/>
      <point x="754" y="1352"/>
      <point x="839" y="1348"/>
      <point x="839" y="1269" type="curve" smooth="yes"/>
      <point x="839" y="1248"/>
      <point x="836" y="1220"/>
      <point x="825" y="1175" type="curve"/>
      <point x="1044" y="1175" type="line"/>
      <point x="1058" y="1203"/>
      <point x="1066" y="1268"/>
      <point x="1066" y="1303" type="curve" smooth="yes"/>
      <point x="1066" y="1480"/>
      <point x="871" y="1571"/>
      <point x="670" y="1571" type="curve" smooth="yes"/>
      <point x="425" y="1571"/>
      <point x="293" y="1436"/>
      <point x="293" y="1093" type="curve" smooth="yes"/>
    </contour>
    <contour>
      <point x="77" y="753" type="line"/>
      <point x="923" y="753" type="line"/>
      <point x="923" y="956" type="line"/>
      <point x="77" y="956" type="line"/>
    </contour>
  </outline>
</glyph>
<glyph name="k" format="2">
  <advance width="1354"/>
  <unicode hex="006B"/>
  <note>
k
</note>
  <guideline x="806" y="680" angle="49.4556"/>
  <anchor x="683" y="0" name="bottom"/>
  <anchor x="683" y="1524" name="top"/>
  <outline>
    <contour>
      <point x="112" y="0" type="line"/>
      <point x="473" y="0" type="line"/>
      <point x="473" y="1524" type="line"/>
      <point x="112" y="1524" type="line"/>
    </contour>
    <contour>
      <point x="890" y="0" type="line"/>
      <point x="1284" y="0" type="line"/>
      <point x="772" y="648" type="line"/>
      <point x="569" y="393" type="line"/>
    </contour>
    <contour>
      <point x="398" y="217" type="line"/>
      <point x="1173" y="1016" type="line"/>
      <point x="850" y="1016" type="line"/>
      <point x="463" y="597" type="line"/>
    </contour>
  </outline>
</glyph>
<glyph name="l" format="2">
  <advance width="585"/>
  <unicode hex="006C"/>
  <note>
l
</note>
  <anchor x="263" y="0" name="bottom"/>
  <anchor x="293" y="803" name="center"/>
  <anchor x="863" y="803" name="dot"/>
  <anchor x="383" y="1506" name="top"/>
  <anchor x="574" y="1467" name="topright"/>
  <outline>
    <contour>
      <point x="112" y="0" type="line"/>
      <point x="473" y="0" type="line"/>
      <point x="473" y="1524" type="line"/>
      <point x="112" y="1524" type="line"/>
    </contour>
  </outline>
</glyph>
<glyph name="m" format="2">
  <advance width="1921"/>
  <unicode hex="006D"/>
  <note>
m
</note>
  <anchor x="961" y="0" name="bottom"/>
  <anchor x="961" y="1026" name="top"/>
  <outline>
    <contour>
      <point x="106" y="0" type="line"/>
      <point x="480" y="0" type="line"/>
      <point x="480" y="587" type="line" smooth="yes"/>
      <point x="480" y="702"/>
      <point x="553" y="836"/>
      <point x="649" y="836" type="curve" smooth="yes"/>
      <point x="724" y="836"/>
      <point x="778" y="755"/>
      <point x="778" y="543" type="curve" smooth="yes"/>
      <point x="778" y="0" type="line"/>
      <point x="1152" y="0" type="line"/>
      <point x="1152" y="587" type="line" smooth="yes"/>
      <point x="1152" y="702"/>
      <point x="1220" y="836"/>
      <point x="1316" y="836" type="curve" smooth="yes"/>
      <point x="1391" y="836"/>
      <point x="1450" y="755"/>
      <point x="1450" y="543" type="curve" smooth="yes"/>
      <point x="1450" y="0" type="line"/>
      <point x="1824" y="0" type="line"/>
      <point x="1824" y="636" type="line" smooth="yes"/>
      <point x="1824" y="886"/>
      <point x="1661" y="1043"/>
      <point x="1405" y="1043" type="curve" smooth="yes"/>
      <point x="1209" y="1043"/>
      <point x="1119" y="951"/>
      <point x="1058" y="696" type="curve"/>
      <point x="1138" y="736" type="line"/>
      <point x="1101" y="928"/>
      <point x="958" y="1043"/>
      <point x="738" y="1043" type="curve" smooth="yes"/>
      <point x="574" y="1043"/>
      <point x="484" y="976"/>
      <point x="422" y="805" type="curve"/>
      <point x="477" y="751" type="line"/>
      <point x="480" y="1016" type="line"/>
      <point x="106" y="1016" type="line"/>
    </contour>
  </outline>
</glyph>
<glyph name="q" format="2">
  <advance width="1411"/>
  <unicode hex="0071"/>
  <note>
q
</note>
  <anchor x="705" y="70" name="bottom"/>
  <anchor x="705" y="1006" name="top"/>
  <outline>
    <contour>
      <point x="939" y="-526" type="line"/>
      <point x="1305" y="-526" type="line"/>
      <point x="1305" y="1016" type="line"/>
      <point x="943" y="1016" type="line"/>
      <point x="943" y="572" type="line"/>
      <point x="1038" y="646" type="line"/>
      <point x="985" y="914"/>
      <point x="846" y="1043"/>
      <point x="593" y="1043" type="curve" smooth="yes"/>
      <point x="282" y="1043"/>
      <point x="80" y="828"/>
      <point x="80" y="507" type="curve" smooth="yes"/>
      <point x="80" y="178"/>
      <point x="279" y="-38"/>
      <point x="587" y="-38" type="curve" smooth="yes"/>
      <point x="837" y="-38"/>
      <point x="986" y="96"/>
      <point x="1031" y="363" type="curve"/>
      <point x="939" y="439" type="line"/>
    </contour>
    <contour>
      <point x="645" y="165" type="curve" smooth="yes"/>
      <point x="502" y="165"/>
      <point x="427" y="266"/>
      <point x="427" y="503" type="curve" smooth="yes"/>
      <point x="427" y="738"/>
      <point x="503" y="840"/>
      <point x="650" y="840" type="curve" smooth="yes"/>
      <point x="793" y="840"/>
      <point x="890" y="685"/>
      <point x="890" y="511" type="curve" smooth="yes"/>
      <point x="890" y="324"/>
      <point x="788" y="165"/>
    </contour>
  </outline>
</glyph>
<glyph name="r" format="2">
  <advance width="1160"/>
  <unicode hex="0072"/>
  <note>
r
</note>
  <anchor x="270" y="0" name="bottom"/>
  <anchor x="770" y="1026" name="top"/>
  <outline>
    <contour>
      <point x="106" y="0" type="line"/>
      <point x="484" y="0" type="line"/>
      <point x="484" y="587" type="line" smooth="yes"/>
      <point x="484" y="702"/>
      <point x="560" y="835"/>
      <point x="660" y="835" type="curve" smooth="yes"/>
      <point x="688" y="835"/>
      <point x="839" y="844"/>
      <point x="798" y="698" type="curve" smooth="yes"/>
      <point x="794" y="683"/>
      <point x="781" y="643"/>
      <point x="761" y="624" type="curve"/>
      <point x="1030" y="576" type="line"/>
      <point x="1078" y="649"/>
      <point x="1083" y="762"/>
      <point x="1083" y="796" type="curve" smooth="yes"/>
      <point x="1083" y="1008"/>
      <point x="872" y="1043"/>
      <point x="753" y="1043" type="curve" smooth="yes"/>
      <point x="535" y="1043"/>
      <point x="475" y="929"/>
      <point x="411" y="673" type="curve"/>
      <point x="480" y="424" type="line"/>
      <point x="484" y="1016" type="line"/>
      <point x="106" y="1016" type="line"/>
    </contour>
  </outline>
</glyph>
<glyph name="s" format="2">
  <advance width="1078"/>
  <unicode hex="0073"/>
  <note>
s
</note>
  <anchor x="539" y="0" name="bottom"/>
  <anchor x="539" y="1016" name="top"/>
  <outline>
    <contour>
      <point x="530" y="-33" type="curve" smooth="yes"/>
      <point x="846" y="-30"/>
      <point x="1003" y="66"/>
      <point x="1001" y="299" type="curve" smooth="yes"/>
      <point x="999" y="534"/>
      <point x="785" y="587"/>
      <point x="558" y="636" type="curve" smooth="yes"/>
      <point x="391" y="672"/>
      <point x="355" y="695"/>
      <point x="355" y="736" type="curve" smooth="yes"/>
      <point x="355" y="799"/>
      <point x="413" y="824"/>
      <point x="528" y="825" type="curve" smooth="yes"/>
      <point x="654" y="826"/>
      <point x="790" y="810"/>
      <point x="939" y="737" type="curve"/>
      <point x="937" y="944" type="line"/>
      <point x="794" y="1008"/>
      <point x="704" y="1044"/>
      <point x="527" y="1043" type="curve" smooth="yes"/>
      <point x="275" y="1042"/>
      <point x="95" y="965"/>
      <point x="97" y="721" type="curve" smooth="yes"/>
      <point x="99" y="523"/>
      <point x="206" y="472"/>
      <point x="433" y="421" type="curve" smooth="yes"/>
      <point x="620" y="379"/>
      <point x="707" y="388"/>
      <point x="707" y="289" type="curve" smooth="yes"/>
      <point x="707" y="198"/>
      <point x="516" y="197"/>
      <point x="516" y="197" type="curve" smooth="yes"/>
      <point x="362" y="195"/>
      <point x="241" y="227"/>
      <point x="83" y="326" type="curve"/>
      <point x="86" y="93" type="line"/>
      <point x="199" y="-2"/>
      <point x="315" y="-35"/>
    </contour>
  </outline>
</glyph>
<glyph name="t" format="2">
  <advance width="887"/>
  <unicode hex="0074"/>
  <note>
t
</note>
  <anchor x="504" y="-10" name="bottom"/>
  <anchor x="464" y="503" name="center"/>
  <anchor x="464" y="1006" name="top"/>
  <anchor x="878" y="1426" name="topright"/>
  <outline>
    <contour>
      <point x="511" y="-32" type="curve" smooth="yes"/>
      <point x="608" y="-32"/>
      <point x="756" y="-10"/>
      <point x="810" y="12" type="curve"/>
      <point x="810" y="216" type="line"/>
      <point x="690" y="172"/>
      <point x="640" y="173"/>
      <point x="611" y="173" type="curve" smooth="yes"/>
      <point x="519" y="173"/>
      <point x="557" y="243"/>
      <point x="557" y="563" type="curve" smooth="yes"/>
      <point x="557" y="819" type="line"/>
      <point x="729" y="819" type="line"/>
      <point x="729" y="1020" type="line"/>
      <point x="557" y="1020" type="line"/>
      <point x="557" y="1325" type="line"/>
      <point x="392" y="1325" type="line"/>
      <point x="443" y="1152"/>
      <point x="293" y="1018"/>
      <point x="77" y="1020" type="curve"/>
      <point x="77" y="819" type="line"/>
      <point x="224" y="819" type="line"/>
      <point x="224" y="255" type="line" smooth="yes"/>
      <point x="224" y="74"/>
      <point x="299" y="-32"/>
    </contour>
  </outline>
</glyph>
<glyph name="u" format="2">
  <advance width="1304"/>
  <unicode hex="0075"/>
  <note>
u
</note>
  <anchor x="573" y="0" name="bottom"/>
  <anchor x="1053" y="0" name="ogonek"/>
  <anchor x="643" y="1016" name="top"/>
  <anchor x="1449" y="1016" name="topright"/>
  <outline>
    <contour>
      <point x="541" y="-25" type="curve" smooth="yes"/>
      <point x="725" y="-25"/>
      <point x="819" y="127"/>
      <point x="883" y="323" type="curve"/>
      <point x="824" y="592" type="line"/>
      <point x="820" y="0" type="line"/>
      <point x="1198" y="0" type="line"/>
      <point x="1198" y="1016" type="line"/>
      <point x="820" y="1016" type="line"/>
      <point x="820" y="429" type="line" smooth="yes"/>
      <point x="820" y="314"/>
      <point x="724" y="182"/>
      <point x="584" y="182" type="curve" smooth="yes"/>
      <point x="506" y="182"/>
      <point x="474" y="261"/>
      <point x="474" y="473" type="curve" smooth="yes"/>
      <point x="474" y="1016" type="line"/>
      <point x="96" y="1016" type="line"/>
      <point x="96" y="380" type="line" smooth="yes"/>
      <point x="96" y="132"/>
      <point x="295" y="-25"/>
    </contour>
  </outline>
</glyph>
<glyph name="v" format="2">
  <advance width="1351"/>
  <unicode hex="0076"/>
  <note>
v
</note>
  <anchor x="676" y="70" name="bottom"/>
  <anchor x="676" y="1006" name="top"/>
  <outline>
    <contour>
      <point x="624" y="-25" type="line"/>
      <point x="735" y="-25" type="line"/>
      <point x="1269" y="1016" type="line"/>
      <point x="1046" y="1016" type="line"/>
      <point x="735" y="389" type="line"/>
      <point x="796" y="382" type="line"/>
      <point x="471" y="1016" type="line"/>
      <point x="82" y="1016" type="line"/>
    </contour>
  </outline>
</glyph>
<glyph name="y" format="2">
  <advance width="1265"/>
  <unicode hex="0079"/>
  <note>
y
</note>
  <guideline x="653" y="634" angle="250.697"/>
  <guideline x="1039" y="666" angle="246.7921"/>
  <anchor x="932" y="0" name="bottom"/>
  <anchor x="692" y="1016" name="top"/>
  <outline>
    <contour>
      <point x="370" y="-583" type="curve" smooth="yes"/>
      <point x="545" y="-583"/>
      <point x="604" y="-422"/>
      <point x="654" y="-274" type="curve" smooth="yes"/>
      <point x="691" y="-165"/>
      <point x="729" y="-54"/>
      <point x="775" y="53" type="curve" smooth="yes"/>
      <point x="1194" y="1016" type="line"/>
      <point x="971" y="1016" type="line"/>
      <point x="659" y="294" type="line"/>
      <point x="831" y="295" type="line"/>
      <point x="456" y="1016" type="line"/>
      <point x="70" y="1016" type="line"/>
      <point x="658" y="-108" type="line"/>
      <point x="615" y="192" type="line"/>
      <point x="515" y="-162" type="line" smooth="yes"/>
      <point x="491" y="-248"/>
      <point x="451" y="-441"/>
      <point x="364" y="-441" type="curve" smooth="yes"/>
      <point x="267" y="-441"/>
      <point x="255" y="-392"/>
      <point x="252" y="-378" type="curve"/>
      <point x="126" y="-378" type="line"/>
      <point x="134" y="-513"/>
      <point x="202" y="-583"/>
    </contour>
  </outline>
</glyph>
<glyph name="z" format="2">
  <advance width="1206"/>
  <unicode hex="007A"/>
  <note>
z
</note>
  <anchor x="604" y="0" name="bottom"/>
  <anchor x="604" y="508" name="center"/>
  <anchor x="604" y="1016" name="top"/>
  <outline>
    <contour>
      <point x="71" y="0" type="line"/>
      <point x="1119" y="0" type="line"/>
      <point x="1119" y="205" type="line"/>
      <point x="473" y="205" type="line"/>
      <point x="445" y="59" type="line"/>
      <point x="1129" y="1016" type="line"/>
      <point x="118" y="1016" type="line"/>
      <point x="118" y="813" type="line"/>
      <point x="729" y="813" type="line"/>
      <point x="755" y="957" type="line"/>
    </contour>
  </outline>
</glyph>
<glyph name="bar" format="2">
  <advance width="630"/>
  <unicode hex="007C"/>
  <note>
bar
</note>
  <outline>
    <contour>
      <point x="170" y="-300" type="line"/>
      <point x="460" y="-300" type="line"/>
      <point x="460" y="1664" type="line"/>
      <point x="170" y="1664" type="line"/>
    </contour>
  </outline>
</glyph>
<glyph name="Euro" format="2">
  <advance width="1970"/>
  <unicode hex="0080"/>
  <note>
Euro
</note>
  <outline>
    <contour>
      <point x="1172" y="-56" type="curve" smooth="yes"/>
      <point x="1491" y="-56"/>
      <point x="1716" y="124"/>
      <point x="1828" y="394" type="curve"/>
      <point x="1534" y="394" type="line"/>
      <point x="1432" y="162"/>
      <point x="1263" y="135"/>
      <point x="1182" y="135" type="curve" smooth="yes"/>
      <point x="927" y="135"/>
      <point x="783" y="415"/>
      <point x="783" y="697" type="curve" smooth="yes"/>
      <point x="783" y="1014"/>
      <point x="966" y="1259"/>
      <point x="1165" y="1259" type="curve" smooth="yes"/>
      <point x="1259" y="1259"/>
      <point x="1456" y="1204"/>
      <point x="1516" y="985" type="curve"/>
      <point x="1808" y="985" type="line"/>
      <point x="1715" y="1260"/>
      <point x="1492" y="1450"/>
      <point x="1172" y="1450" type="curve" smooth="yes"/>
      <point x="759" y="1450"/>
      <point x="425" y="1159"/>
      <point x="425" y="699" type="curve" smooth="yes"/>
      <point x="425" y="257"/>
      <point x="752" y="-56"/>
    </contour>
    <contour>
      <point x="142" y="464" type="line"/>
      <point x="1172" y="464" type="line"/>
      <point x="1222" y="657" type="line"/>
      <point x="196" y="657" type="line"/>
    </contour>
    <contour>
      <point x="191" y="735" type="line"/>
      <point x="1222" y="735" type="line"/>
      <point x="1270" y="928" type="line"/>
      <point x="245" y="928" type="line"/>
    </contour>
  </outline>
</glyph>
<glyph name="sterling" format="2">
  <advance width="1447"/>
  <unicode hex="00A3"/>
  <note>
sterling
</note>
  <outline>
    <contour>
      <point x="444" y="141" type="curve" smooth="yes"/>
      <point x="633" y="141"/>
      <point x="833" y="306"/>
      <point x="833" y="498" type="curve" smooth="yes"/>
      <point x="833" y="615"/>
      <point x="769" y="697"/>
      <point x="633" y="804" type="curve" smooth="yes"/>
      <point x="479" y="925"/>
      <point x="498" y="1035"/>
      <point x="498" y="1099" type="curve" smooth="yes"/>
      <point x="498" y="1233"/>
      <point x="602" y="1282"/>
      <point x="685" y="1282" type="curve" smooth="yes"/>
      <point x="838" y="1282"/>
      <point x="931" y="1115"/>
      <point x="926" y="975" type="curve"/>
      <point x="1232" y="975" type="line"/>
      <point x="1226" y="1276"/>
      <point x="1032" y="1468"/>
      <point x="702" y="1468" type="curve" smooth="yes"/>
      <point x="387" y="1468"/>
      <point x="160" y="1266"/>
      <point x="160" y="1010" type="curve" smooth="yes"/>
      <point x="160" y="840"/>
      <point x="261" y="751"/>
      <point x="397" y="664" type="curve" smooth="yes"/>
      <point x="509" y="592"/>
      <point x="491" y="525"/>
      <point x="491" y="493" type="curve" smooth="yes"/>
      <point x="491" y="397"/>
      <point x="307" y="299"/>
      <point x="166" y="302" type="curve"/>
      <point x="282" y="125"/>
      <point x="375" y="141"/>
    </contour>
    <contour>
      <point x="166" y="0" type="line"/>
      <point x="1299" y="0" type="line"/>
      <point x="1299" y="302" type="line"/>
      <point x="166" y="302" type="line"/>
    </contour>
    <contour>
      <point x="166" y="581" type="line"/>
      <point x="1092" y="581" type="line"/>
      <point x="1092" y="779" type="line"/>
      <point x="166" y="779" type="line"/>
    </contour>
  </outline>
</glyph>
<glyph name="currency" format="2">
  <advance width="1522"/>
  <unicode hex="00A4"/>
  <note>
currency
</note>
  <outline>
    <contour>
      <point x="284" y="102" type="line"/>
      <point x="451" y="269" type="line"/>
      <point x="539" y="209"/>
      <point x="646" y="174"/>
      <point x="761" y="174" type="curve" smooth="yes"/>
      <point x="876" y="174"/>
      <point x="983" y="209"/>
      <point x="1071" y="269" type="curve"/>
      <point x="1238" y="102" type="line"/>
      <point x="1380" y="244" type="line"/>
      <point x="1213" y="411" type="line"/>
      <point x="1273" y="499"/>
      <point x="1308" y="606"/>
      <point x="1308" y="721" type="curve" smooth="yes"/>
      <point x="1308" y="836"/>
      <point x="1273" y="943"/>
      <point x="1213" y="1031" type="curve"/>
      <point x="1380" y="1198" type="line"/>
      <point x="1238" y="1340" type="line"/>
      <point x="1071" y="1173" type="line"/>
      <point x="983" y="1233"/>
      <point x="876" y="1268"/>
      <point x="761" y="1268" type="curve" smooth="yes"/>
      <point x="646" y="1268"/>
      <point x="539" y="1233"/>
      <point x="451" y="1173" type="curve"/>
      <point x="284" y="1340" type="line"/>
      <point x="142" y="1198" type="line"/>
      <point x="309" y="1031" type="line"/>
      <point x="249" y="943"/>
      <point x="214" y="836"/>
      <point x="214" y="721" type="curve" smooth="yes"/>
      <point x="214" y="606"/>
      <point x="249" y="499"/>
      <point x="309" y="411" type="curve"/>
      <point x="142" y="244" type="line"/>
    </contour>
    <contour>
      <point x="761" y="385" type="curve" smooth="yes"/>
      <point x="575" y="385"/>
      <point x="425" y="535"/>
      <point x="425" y="721" type="curve" smooth="yes"/>
      <point x="425" y="907"/>
      <point x="575" y="1057"/>
      <point x="761" y="1057" type="curve" smooth="yes"/>
      <point x="947" y="1057"/>
      <point x="1097" y="907"/>
      <point x="1097" y="721" type="curve" smooth="yes"/>
      <point x="1097" y="535"/>
      <point x="947" y="385"/>
    </contour>
  </outline>
</glyph>
<glyph name="copyright" format="2">
  <advance width="1846"/>
  <unicode hex="00A9"/>
  <note>
copyright
</note>
  <outline>
    <contour>
      <point x="921" y="-27" type="curve" smooth="yes"/>
      <point x="1124" y="-27"/>
      <point x="1323" y="45"/>
      <point x="1477" y="186" type="curve" smooth="yes"/>
      <point x="1628" y="323"/>
      <point x="1709" y="498"/>
      <point x="1709" y="703" type="curve" smooth="yes"/>
      <point x="1709" y="905"/>
      <point x="1627" y="1085"/>
      <point x="1481" y="1221" type="curve" smooth="yes"/>
      <point x="1330" y="1361"/>
      <point x="1136" y="1433"/>
      <point x="921" y="1433" type="curve" smooth="yes"/>
      <point x="708" y="1433"/>
      <point x="527" y="1372"/>
      <point x="371" y="1222" type="curve" smooth="yes"/>
      <point x="224" y="1082"/>
      <point x="136" y="905"/>
      <point x="136" y="703" type="curve" smooth="yes"/>
      <point x="136" y="510"/>
      <point x="217" y="327"/>
      <point x="370" y="186" type="curve" smooth="yes"/>
      <point x="520" y="48"/>
      <point x="713" y="-27"/>
    </contour>
    <contour>
      <point x="917" y="345" type="curve" smooth="yes"/>
      <point x="1138" y="345"/>
      <point x="1264" y="474"/>
      <point x="1264" y="646" type="curve"/>
      <point x="1059" y="646" type="line"/>
      <point x="1056" y="549"/>
      <point x="1014" y="508"/>
      <point x="923" y="508" type="curve" smooth="yes"/>
      <point x="802" y="508"/>
      <point x="767" y="567"/>
      <point x="767" y="701" type="curve" smooth="yes"/>
      <point x="767" y="829"/>
      <point x="794" y="901"/>
      <point x="923" y="901" type="curve" smooth="yes"/>
      <point x="1010" y="901"/>
      <point x="1040" y="868"/>
      <point x="1053" y="778" type="curve"/>
      <point x="1255" y="778" type="line"/>
      <point x="1255" y="938"/>
      <point x="1141" y="1063"/>
      <point x="925" y="1063" type="curve" smooth="yes"/>
      <point x="696" y="1063"/>
      <point x="542" y="924"/>
      <point x="542" y="701" type="curve" smooth="yes"/>
      <point x="542" y="486"/>
      <point x="685" y="345"/>
    </contour>
    <contour>
      <point x="921" y="169" type="curve" smooth="yes"/>
      <point x="764" y="169"/>
      <point x="616" y="229"/>
      <point x="502" y="333" type="curve" smooth="yes"/>
      <point x="384" y="440"/>
      <point x="332" y="568"/>
      <point x="332" y="703" type="curve" smooth="yes"/>
      <point x="332" y="849"/>
      <point x="386" y="972"/>
      <point x="505" y="1080" type="curve" smooth="yes"/>
      <point x="619" y="1184"/>
      <point x="753" y="1240"/>
      <point x="921" y="1240" type="curve" smooth="yes"/>
      <point x="1085" y="1240"/>
      <point x="1232" y="1181"/>
      <point x="1345" y="1079" type="curve" smooth="yes"/>
      <point x="1462" y="973"/>
      <point x="1515" y="844"/>
      <point x="1515" y="703" type="curve" smooth="yes"/>
      <point x="1515" y="557"/>
      <point x="1465" y="438"/>
      <point x="1349" y="335" type="curve" smooth="yes"/>
      <point x="1234" y="233"/>
      <point x="1083" y="169"/>
    </contour>
  </outline>
</glyph>
<glyph name="ordfeminine" format="2">
  <advance width="947"/>
  <unicode hex="00AA"/>
  <note>
ordfeminine
</note>
  <outline>
    <contour>
      <point x="450" y="738" type="curve" smooth="yes"/>
      <point x="504" y="738"/>
      <point x="584" y="778"/>
      <point x="621" y="822" type="curve"/>
      <point x="621" y="741" type="line"/>
      <point x="827" y="741" type="line"/>
      <point x="827" y="1447" type="line"/>
      <point x="619" y="1447" type="line"/>
      <point x="619" y="1366" type="line"/>
      <point x="587" y="1416"/>
      <point x="505" y="1461"/>
      <point x="445" y="1461" type="curve" smooth="yes"/>
      <point x="228" y="1461"/>
      <point x="87" y="1316"/>
      <point x="87" y="1097" type="curve" smooth="yes"/>
      <point x="87" y="882"/>
      <point x="231" y="738"/>
    </contour>
    <contour>
      <point x="457" y="921" type="curve" smooth="yes"/>
      <point x="376" y="921"/>
      <point x="325" y="994"/>
      <point x="325" y="1111" type="curve" smooth="yes"/>
      <point x="325" y="1214"/>
      <point x="375" y="1278"/>
      <point x="454" y="1278" type="curve" smooth="yes"/>
      <point x="526" y="1278"/>
      <point x="571" y="1207"/>
      <point x="571" y="1095" type="curve" smooth="yes"/>
      <point x="571" y="988"/>
      <point x="527" y="921"/>
    </contour>
    <contour>
      <point x="86" y="532" type="line"/>
      <point x="863" y="532" type="line"/>
      <point x="863" y="662" type="line"/>
      <point x="86" y="662" type="line"/>
    </contour>
  </outline>
</glyph>
<glyph name="registered" format="2">
  <advance width="1846"/>
  <unicode hex="00AE"/>
  <note>
registered
</note>
  <outline>
    <contour>
      <point x="921" y="-27" type="curve" smooth="yes"/>
      <point x="1124" y="-27"/>
      <point x="1323" y="45"/>
      <point x="1477" y="186" type="curve" smooth="yes"/>
      <point x="1628" y="323"/>
      <point x="1709" y="498"/>
      <point x="1709" y="703" type="curve" smooth="yes"/>
      <point x="1709" y="905"/>
      <point x="1627" y="1085"/>
      <point x="1481" y="1221" type="curve" smooth="yes"/>
      <point x="1330" y="1361"/>
      <point x="1136" y="1433"/>
      <point x="921" y="1433" type="curve" smooth="yes"/>
      <point x="708" y="1433"/>
      <point x="527" y="1372"/>
      <point x="371" y="1222" type="curve" smooth="yes"/>
      <point x="224" y="1082"/>
      <point x="136" y="905"/>
      <point x="136" y="703" type="curve" smooth="yes"/>
      <point x="136" y="510"/>
      <point x="217" y="327"/>
      <point x="370" y="186" type="curve" smooth="yes"/>
      <point x="520" y="48"/>
      <point x="713" y="-27"/>
    </contour>
    <contour>
      <point x="921" y="169" type="curve" smooth="yes"/>
      <point x="764" y="169"/>
      <point x="616" y="229"/>
      <point x="502" y="333" type="curve" smooth="yes"/>
      <point x="384" y="440"/>
      <point x="332" y="568"/>
      <point x="332" y="703" type="curve" smooth="yes"/>
      <point x="332" y="849"/>
      <point x="386" y="972"/>
      <point x="505" y="1080" type="curve" smooth="yes"/>
      <point x="619" y="1184"/>
      <point x="753" y="1240"/>
      <point x="921" y="1240" type="curve" smooth="yes"/>
      <point x="1085" y="1240"/>
      <point x="1232" y="1181"/>
      <point x="1345" y="1079" type="curve" smooth="yes"/>
      <point x="1462" y="973"/>
      <point x="1515" y="844"/>
      <point x="1515" y="703" type="curve" smooth="yes"/>
      <point x="1515" y="557"/>
      <point x="1465" y="438"/>
      <point x="1349" y="335" type="curve" smooth="yes"/>
      <point x="1234" y="233"/>
      <point x="1083" y="169"/>
    </contour>
    <contour>
      <point x="644" y="370" type="line"/>
      <point x="836" y="370" type="line"/>
      <point x="836" y="615" type="line"/>
      <point x="925" y="615" type="line"/>
      <point x="1061" y="370" type="line"/>
      <point x="1279" y="370" type="line"/>
      <point x="1112" y="652" type="line"/>
      <point x="1194" y="707"/>
      <point x="1237" y="766"/>
      <point x="1237" y="843" type="curve" smooth="yes"/>
      <point x="1237" y="991"/>
      <point x="1119" y="1064"/>
      <point x="900" y="1064" type="curve" smooth="yes"/>
      <point x="644" y="1064" type="line"/>
    </contour>
    <contour>
      <point x="836" y="752" type="line"/>
      <point x="836" y="917" type="line"/>
      <point x="912" y="916" type="line" smooth="yes"/>
      <point x="1018" y="915"/>
      <point x="1054" y="898"/>
      <point x="1054" y="835" type="curve" smooth="yes"/>
      <point x="1054" y="784"/>
      <point x="1020" y="752"/>
      <point x="917" y="752" type="curve" smooth="yes"/>
    </contour>
  </outline>
</glyph>
<glyph name="plusminus" format="2">
  <advance width="1188"/>
  <unicode hex="00B1"/>
  <note>
plusminus
</note>
  <outline>
    <contour>
      <point x="485" y="307" type="line"/>
      <point x="732" y="307" type="line"/>
      <point x="732" y="492" type="line"/>
      <point x="1061" y="492" type="line"/>
      <point x="1061" y="842" type="line"/>
      <point x="732" y="842" type="line"/>
      <point x="732" y="1026" type="line"/>
      <point x="485" y="1026" type="line"/>
      <point x="485" y="842" type="line"/>
      <point x="156" y="842" type="line"/>
      <point x="156" y="492" type="line"/>
      <point x="485" y="492" type="line"/>
    </contour>
    <contour>
      <point x="155" y="-23" type="line"/>
      <point x="1060" y="-23" type="line"/>
      <point x="1060" y="327" type="line"/>
      <point x="155" y="327" type="line"/>
    </contour>
  </outline>
</glyph>
<glyph name="paragraph" format="2">
  <advance width="1421"/>
  <unicode hex="00B6"/>
  <note>
paragraph
</note>
  <outline>
    <contour>
      <point x="511" y="0" type="line"/>
      <point x="782" y="0" type="line"/>
      <point x="782" y="1216" type="line"/>
      <point x="891" y="1216" type="line"/>
      <point x="891" y="0" type="line"/>
      <point x="1160" y="0" type="line"/>
      <point x="1160" y="1216" type="line"/>
      <point x="1286" y="1216" type="line"/>
      <point x="1286" y="1450" type="line"/>
      <point x="617" y="1450" type="line" smooth="yes"/>
      <point x="338" y="1450"/>
      <point x="135" y="1257"/>
      <point x="135" y="995" type="curve" smooth="yes"/>
      <point x="135" y="755"/>
      <point x="303" y="553"/>
      <point x="511" y="545" type="curve"/>
    </contour>
  </outline>
</glyph>
<glyph name="ordmasculine" format="2">
  <advance width="1027"/>
  <unicode hex="00BA"/>
  <note>
ordmasculine
</note>
  <outline>
    <contour>
      <point x="513" y="734" type="curve" smooth="yes"/>
      <point x="754" y="734"/>
      <point x="914" y="879"/>
      <point x="914" y="1097" type="curve" smooth="yes"/>
      <point x="914" y="1316"/>
      <point x="754" y="1464"/>
      <point x="513" y="1464" type="curve" smooth="yes"/>
      <point x="272" y="1464"/>
      <point x="113" y="1316"/>
      <point x="113" y="1097" type="curve" smooth="yes"/>
      <point x="113" y="878"/>
      <point x="273" y="734"/>
    </contour>
    <contour>
      <point x="512" y="917" type="curve" smooth="yes"/>
      <point x="417" y="917"/>
      <point x="351" y="991"/>
      <point x="351" y="1097" type="curve" smooth="yes"/>
      <point x="351" y="1204"/>
      <point x="417" y="1281"/>
      <point x="512" y="1281" type="curve" smooth="yes"/>
      <point x="607" y="1281"/>
      <point x="676" y="1204"/>
      <point x="676" y="1097" type="curve" smooth="yes"/>
      <point x="676" y="991"/>
      <point x="607" y="917"/>
    </contour>
    <contour>
      <point x="125" y="532" type="line"/>
      <point x="902" y="532" type="line"/>
      <point x="902" y="662" type="line"/>
      <point x="125" y="662" type="line"/>
    </contour>
  </outline>
</glyph>
<glyph name="AE" format="2">
  <advance width="2282"/>
  <unicode hex="00C6"/>
  <note>
AE
</note>
  <anchor x="1202" y="50" name="bottom"/>
  <anchor x="1202" y="1430" name="top"/>
  <outline>
    <contour>
      <point x="99" y="0" type="line"/>
      <point x="345" y="0" type="line"/>
      <point x="1340" y="1437" type="line"/>
      <point x="1095" y="1437" type="line"/>
    </contour>
    <contour>
      <point x="605" y="405" type="line"/>
      <point x="1418" y="405" type="line"/>
      <point x="1418" y="598" type="line"/>
      <point x="605" y="598" type="line"/>
    </contour>
    <contour>
      <point x="1115" y="0" type="line"/>
      <point x="2165" y="0" type="line"/>
      <point x="2165" y="193" type="line"/>
      <point x="1169" y="193" type="line"/>
      <point x="1502" y="11" type="line"/>
      <point x="1502" y="816" type="line"/>
      <point x="1293" y="633" type="line"/>
      <point x="2165" y="633" type="line"/>
      <point x="2165" y="826" type="line"/>
      <point x="1294" y="826" type="line"/>
      <point x="1502" y="641" type="line"/>
      <point x="1502" y="1424" type="line"/>
      <point x="1170" y="1244" type="line"/>
      <point x="2165" y="1244" type="line"/>
      <point x="2165" y="1437" type="line"/>
      <point x="1115" y="1437" type="line"/>
    </contour>
  </outline>
</glyph>
<glyph name="Thorn" format="2">
  <advance width="1366"/>
  <unicode hex="00DE"/>
  <note>
Thorn
</note>
  <anchor x="684" y="50" name="bottom"/>
  <anchor x="684" y="1430" name="top"/>
  <outline>
    <contour>
      <point x="323" y="283" type="line"/>
      <point x="643" y="283" type="line" smooth="yes"/>
      <point x="828" y="283"/>
      <point x="1004" y="329"/>
      <point x="1080" y="388" type="curve" smooth="yes"/>
      <point x="1216" y="493"/>
      <point x="1260" y="579"/>
      <point x="1260" y="746" type="curve" smooth="yes"/>
      <point x="1260" y="898"/>
      <point x="1226" y="972"/>
      <point x="1113" y="1075" type="curve" smooth="yes"/>
      <point x="1036" y="1145"/>
      <point x="848" y="1200"/>
      <point x="644" y="1200" type="curve" smooth="yes"/>
      <point x="322" y="1200" type="line"/>
      <point x="322" y="1023" type="line"/>
      <point x="559" y="1023" type="line" smooth="yes"/>
      <point x="820" y="1023"/>
      <point x="901" y="973"/>
      <point x="901" y="744" type="curve" smooth="yes"/>
      <point x="901" y="512"/>
      <point x="820" y="460"/>
      <point x="559" y="460" type="curve" smooth="yes"/>
      <point x="323" y="460" type="line"/>
    </contour>
    <contour>
      <point x="138" y="0" type="line"/>
      <point x="514" y="0" type="line"/>
      <point x="514" y="1437" type="line"/>
      <point x="138" y="1437" type="line"/>
    </contour>
  </outline>
</glyph>
<glyph name="germandbls" format="2">
  <advance width="1575"/>
  <unicode hex="00DF"/>
  <note>
germandbls
</note>
  <anchor x="788" y="70" name="bottom"/>
  <anchor x="788" y="1006" name="top"/>
  <outline>
    <contour>
      <point x="1037" y="-36" type="curve" smooth="yes"/>
      <point x="1324" y="-36"/>
      <point x="1498" y="46"/>
      <point x="1498" y="303" type="curve" smooth="yes"/>
      <point x="1498" y="524"/>
      <point x="1369" y="574"/>
      <point x="1142" y="627" type="curve" smooth="yes"/>
      <point x="1022" y="655"/>
      <point x="1011" y="680"/>
      <point x="1011" y="710" type="curve" smooth="yes"/>
      <point x="1011" y="789"/>
      <point x="1061" y="784"/>
      <point x="1164" y="852" type="curve" smooth="yes"/>
      <point x="1228" y="895"/>
      <point x="1340" y="954"/>
      <point x="1340" y="1133" type="curve" smooth="yes"/>
      <point x="1340" y="1401"/>
      <point x="1142" y="1593"/>
      <point x="786" y="1593" type="curve" smooth="yes"/>
      <point x="490" y="1593"/>
      <point x="262" y="1357"/>
      <point x="262" y="1075" type="curve" smooth="yes"/>
      <point x="262" y="0" type="line"/>
      <point x="622" y="0" type="line"/>
      <point x="622" y="955" type="line" smooth="yes"/>
      <point x="622" y="1155"/>
      <point x="598" y="1388"/>
      <point x="799" y="1388" type="curve" smooth="yes"/>
      <point x="939" y="1388"/>
      <point x="1052" y="1340"/>
      <point x="1052" y="1133" type="curve" smooth="yes"/>
      <point x="1052" y="1032"/>
      <point x="1008" y="974"/>
      <point x="934" y="931" type="curve" smooth="yes"/>
      <point x="874" y="896"/>
      <point x="764" y="853"/>
      <point x="764" y="662" type="curve" smooth="yes"/>
      <point x="764" y="546"/>
      <point x="811" y="475"/>
      <point x="1020" y="427" type="curve" smooth="yes"/>
      <point x="1084" y="412"/>
      <point x="1204" y="418"/>
      <point x="1204" y="293" type="curve" smooth="yes"/>
      <point x="1204" y="204"/>
      <point x="1142" y="189"/>
      <point x="1043" y="189" type="curve" smooth="yes"/>
      <point x="977" y="189"/>
      <point x="918" y="194"/>
      <point x="790" y="247" type="curve"/>
      <point x="773" y="39" type="line"/>
      <point x="878" y="-17"/>
      <point x="983" y="-36"/>
    </contour>
    <contour>
      <point x="77" y="814" type="line"/>
      <point x="478" y="814" type="line"/>
      <point x="478" y="1017" type="line"/>
      <point x="77" y="1017" type="line"/>
    </contour>
  </outline>
</glyph>
<glyph name="ae" format="2">
  <advance width="2253"/>
  <unicode hex="00E6"/>
  <note>
ae
</note>
  <anchor x="1094" y="70" name="bottom"/>
  <anchor x="1114" y="1006" name="top"/>
  <outline>
    <contour>
      <point x="599" y="-35" type="curve" smooth="yes"/>
      <point x="853" y="-35"/>
      <point x="999" y="94"/>
      <point x="1055" y="359" type="curve"/>
      <point x="957" y="438" type="line"/>
      <point x="957" y="0" type="line"/>
      <point x="1275" y="0" type="line"/>
      <point x="1275" y="1016" type="line"/>
      <point x="952" y="1016" type="line"/>
      <point x="952" y="583" type="line"/>
      <point x="1049" y="659" type="line"/>
      <point x="1000" y="927"/>
      <point x="833" y="1043"/>
      <point x="593" y="1043" type="curve" smooth="yes"/>
      <point x="270" y="1043"/>
      <point x="80" y="822"/>
      <point x="80" y="498" type="curve" smooth="yes"/>
      <point x="80" y="161"/>
      <point x="286" y="-35"/>
    </contour>
    <contour>
      <point x="632" y="170" type="curve" smooth="yes"/>
      <point x="512" y="170"/>
      <point x="446" y="265"/>
      <point x="446" y="502" type="curve" smooth="yes"/>
      <point x="446" y="735"/>
      <point x="503" y="839"/>
      <point x="626" y="839" type="curve" smooth="yes"/>
      <point x="766" y="839"/>
      <point x="869" y="698"/>
      <point x="869" y="505" type="curve" smooth="yes"/>
      <point x="869" y="318"/>
      <point x="781" y="170"/>
    </contour>
    <contour>
      <point x="1650" y="-28" type="curve" smooth="yes"/>
      <point x="1919" y="-28"/>
      <point x="2079" y="110"/>
      <point x="2175" y="428" type="curve"/>
      <point x="1916" y="428" type="line"/>
      <point x="1969" y="344"/>
      <point x="1802" y="175"/>
      <point x="1660" y="175" type="curve" smooth="yes"/>
      <point x="1539" y="175"/>
      <point x="1461" y="336"/>
      <point x="1461" y="503" type="curve" smooth="yes"/>
      <point x="1461" y="665"/>
      <point x="1528" y="839"/>
      <point x="1650" y="839" type="curve" smooth="yes"/>
      <point x="1749" y="839"/>
      <point x="1810" y="724"/>
      <point x="1829" y="482" type="curve"/>
      <point x="2179" y="482" type="line"/>
      <point x="2143" y="856"/>
      <point x="1951" y="1043"/>
      <point x="1645" y="1043" type="curve" smooth="yes"/>
      <point x="1316" y="1043"/>
      <point x="1113" y="824"/>
      <point x="1113" y="507" type="curve" smooth="yes"/>
      <point x="1113" y="182"/>
      <point x="1319" y="-28"/>
    </contour>
    <contour>
      <point x="1442" y="481" type="line"/>
      <point x="2103" y="482" type="line"/>
      <point x="2103" y="678" type="line"/>
      <point x="1376" y="678" type="line"/>
    </contour>
  </outline>
</glyph>
<glyph name="eth" format="2">
  <advance width="1343"/>
  <unicode hex="00F0"/>
  <note>
eth
</note>
  <outline>
    <contour>
      <point x="670" y="-42" type="curve" smooth="yes"/>
      <point x="910" y="-42"/>
      <point x="1070" y="34"/>
      <point x="1166" y="181" type="curve" smooth="yes"/>
      <point x="1226" y="272"/>
      <point x="1260" y="373"/>
      <point x="1260" y="522" type="curve" smooth="yes"/>
      <point x="1260" y="662"/>
      <point x="1232" y="885"/>
      <point x="1134" y="1052" type="curve" smooth="yes"/>
      <point x="996" y="1289"/>
      <point x="653" y="1525"/>
      <point x="225" y="1591" type="curve"/>
      <point x="129" y="1438" type="line"/>
      <point x="595" y="1378"/>
      <point x="855" y="1138"/>
      <point x="922" y="692" type="curve"/>
      <point x="1137" y="799" type="line"/>
      <point x="973" y="930"/>
      <point x="866" y="982"/>
      <point x="670" y="982" type="curve" smooth="yes"/>
      <point x="516" y="982"/>
      <point x="386" y="952"/>
      <point x="284" y="885" type="curve" smooth="yes"/>
      <point x="156" y="802"/>
      <point x="79" y="660"/>
      <point x="79" y="466" type="curve" smooth="yes"/>
      <point x="79" y="323"/>
      <point x="125" y="216"/>
      <point x="193" y="137" type="curve" smooth="yes"/>
      <point x="303" y="9"/>
      <point x="473" y="-42"/>
    </contour>
    <contour>
      <point x="669" y="150" type="curve" smooth="yes"/>
      <point x="548" y="150"/>
      <point x="444" y="296"/>
      <point x="444" y="467" type="curve" smooth="yes"/>
      <point x="444" y="640"/>
      <point x="550" y="789"/>
      <point x="669" y="789" type="curve" smooth="yes"/>
      <point x="788" y="789"/>
      <point x="894" y="640"/>
      <point x="894" y="467" type="curve" smooth="yes"/>
      <point x="894" y="295"/>
      <point x="790" y="150"/>
    </contour>
    <contour>
      <point x="193" y="1126" type="line"/>
      <point x="487" y="1126" type="line"/>
      <point x="1037" y="1585" type="line"/>
      <point x="743" y="1585" type="line"/>
    </contour>
  </outline>
</glyph>
<glyph name="divide" format="2">
  <advance width="1188"/>
  <unicode hex="00F7"/>
  <note>
divide
</note>
  <outline>
    <contour>
      <point x="137" y="453" type="line"/>
      <point x="1518" y="453" type="line"/>
      <point x="1518" y="729" type="line"/>
      <point x="137" y="729" type="line"/>
    </contour>
    <contour>
      <point x="827" y="-42" type="curve" smooth="yes"/>
      <point x="942" y="-42"/>
      <point x="1028" y="70"/>
      <point x="1028" y="203" type="curve" smooth="yes"/>
      <point x="1028" y="336"/>
      <point x="941" y="449"/>
      <point x="827" y="449" type="curve" smooth="yes"/>
      <point x="714" y="449"/>
      <point x="627" y="336"/>
      <point x="627" y="203" type="curve" smooth="yes"/>
      <point x="627" y="70"/>
      <point x="714" y="-42"/>
    </contour>
    <contour>
      <point x="827" y="738" type="curve" smooth="yes"/>
      <point x="941" y="738"/>
      <point x="1028" y="850"/>
      <point x="1028" y="982" type="curve" smooth="yes"/>
      <point x="1028" y="1115"/>
      <point x="941" y="1228"/>
      <point x="827" y="1228" type="curve" smooth="yes"/>
      <point x="713" y="1228"/>
      <point x="627" y="1115"/>
      <point x="627" y="982" type="curve" smooth="yes"/>
      <point x="627" y="850"/>
      <point x="714" y="738"/>
    </contour>
  </outline>
</glyph>
<glyph name="thorn" format="2">
  <advance width="1424"/>
  <unicode hex="00FE"/>
  <note>
thorn
</note>
  <anchor x="722" y="70" name="bottom"/>
  <anchor x="722" y="1006" name="top"/>
  <outline>
    <contour>
      <point x="119" y="-526" type="line"/>
      <point x="485" y="-526" type="line"/>
      <point x="485" y="439" type="line"/>
      <point x="393" y="363" type="line"/>
      <point x="438" y="96"/>
      <point x="587" y="-38"/>
      <point x="837" y="-38" type="curve" smooth="yes"/>
      <point x="1145" y="-38"/>
      <point x="1344" y="178"/>
      <point x="1344" y="507" type="curve" smooth="yes"/>
      <point x="1344" y="828"/>
      <point x="1142" y="1043"/>
      <point x="831" y="1043" type="curve" smooth="yes"/>
      <point x="578" y="1043"/>
      <point x="439" y="914"/>
      <point x="386" y="646" type="curve"/>
      <point x="481" y="572" type="line"/>
      <point x="481" y="1524" type="line"/>
      <point x="119" y="1524" type="line"/>
    </contour>
    <contour>
      <point x="779" y="165" type="curve" smooth="yes"/>
      <point x="636" y="165"/>
      <point x="534" y="324"/>
      <point x="534" y="511" type="curve" smooth="yes"/>
      <point x="534" y="685"/>
      <point x="631" y="840"/>
      <point x="774" y="840" type="curve" smooth="yes"/>
      <point x="921" y="840"/>
      <point x="997" y="738"/>
      <point x="997" y="503" type="curve" smooth="yes"/>
      <point x="997" y="266"/>
      <point x="922" y="165"/>
    </contour>
  </outline>
</glyph>
<glyph name="kgreenlandic" format="2">
  <advance width="1348"/>
  <unicode hex="0138"/>
  <anchor x="687" y="70" name="bottom"/>
  <anchor x="687" y="1006" name="top"/>
  <outline>
    <contour>
      <point x="106" y="0" type="line"/>
      <point x="467" y="0" type="line"/>
      <point x="467" y="1016" type="line"/>
      <point x="106" y="1016" type="line"/>
    </contour>
    <contour>
      <point x="884" y="0" type="line"/>
      <point x="1278" y="0" type="line"/>
      <point x="766" y="648" type="line"/>
      <point x="563" y="393" type="line"/>
    </contour>
    <contour>
      <point x="392" y="217" type="line"/>
      <point x="1167" y="1016" type="line"/>
      <point x="844" y="1016" type="line"/>
      <point x="457" y="597" type="line"/>
    </contour>
  </outline>
</glyph>
<glyph name="eng" format="2">
  <advance width="1275"/>
  <unicode hex="014B"/>
  <outline>
    <contour>
      <point x="784" y="-527" type="curve" smooth="yes"/>
      <point x="1075" y="-527"/>
      <point x="1178" y="-243"/>
      <point x="1178" y="141" type="curve" smooth="yes"/>
      <point x="1178" y="636" type="line" smooth="yes"/>
      <point x="1178" y="886"/>
      <point x="1019" y="1043"/>
      <point x="753" y="1043" type="curve" smooth="yes"/>
      <point x="582" y="1043"/>
      <point x="488" y="978"/>
      <point x="424" y="809" type="curve"/>
      <point x="481" y="754" type="line"/>
      <point x="484" y="1016" type="line"/>
      <point x="106" y="1016" type="line"/>
      <point x="106" y="-1" type="line"/>
      <point x="484" y="-1" type="line"/>
      <point x="484" y="587" type="line" smooth="yes"/>
      <point x="484" y="704"/>
      <point x="560" y="836"/>
      <point x="660" y="836" type="curve" smooth="yes"/>
      <point x="738" y="836"/>
      <point x="800" y="757"/>
      <point x="800" y="543" type="curve" smooth="yes"/>
      <point x="800" y="166" type="line" smooth="yes"/>
      <point x="800" y="7"/>
      <point x="880" y="-343"/>
      <point x="754" y="-343" type="curve" smooth="yes"/>
      <point x="713" y="-343"/>
      <point x="665" y="-310"/>
      <point x="665" y="-265" type="curve" smooth="yes"/>
      <point x="665" y="-252"/>
      <point x="668" y="-226"/>
      <point x="672" y="-197" type="curve"/>
      <point x="452" y="-197" type="line"/>
      <point x="450" y="-224"/>
      <point x="452" y="-256"/>
      <point x="452" y="-262" type="curve" smooth="yes"/>
      <point x="459" y="-447"/>
      <point x="629" y="-527"/>
    </contour>
  </outline>
</glyph>
<glyph name="primemod" format="2">
  <advance width="364"/>
  <unicode hex="02B9"/>
  <outline>
    <contour>
      <point x="364" y="1353" type="curve"/>
      <point x="102" y="1353" type="line"/>
      <point x="64" y="1248"/>
      <point x="12" y="1054"/>
      <point x="0" y="976" type="curve"/>
      <point x="218" y="976" type="line"/>
      <point x="280" y="1112"/>
      <point x="340" y="1259"/>
    </contour>
  </outline>
</glyph>
<glyph name="circumflexcomb" format="2">
  <unicode hex="0302"/>
  <note>
circumflex
</note>
  <anchor x="418" y="986" name="_top"/>
  <anchor x="418" y="1535" name="top"/>
  <outline>
    <contour>
      <point x="66" y="1113" type="line"/>
      <point x="210" y="1113" type="line"/>
      <point x="412" y="1355" type="line"/>
      <point x="628" y="1113" type="line"/>
      <point x="770" y="1113" type="line"/>
      <point x="512" y="1525" type="line"/>
      <point x="321" y="1525" type="line"/>
    </contour>
  </outline>
</glyph>
<glyph name="tildecomb" format="2">
  <unicode hex="0303"/>
  <note>
tilde
</note>
  <anchor x="402" y="986" name="_top"/>
  <anchor x="402" y="1419" name="top"/>
  <outline>
    <contour>
      <point x="528" y="1106" type="curve" smooth="yes"/>
      <point x="629" y="1106"/>
      <point x="716" y="1182"/>
      <point x="768" y="1331" type="curve"/>
      <point x="733" y="1374" type="line"/>
      <point x="646" y="1258"/>
      <point x="576" y="1263"/>
      <point x="556" y="1263" type="curve" smooth="yes"/>
      <point x="430" y="1263"/>
      <point x="458" y="1409"/>
      <point x="278" y="1409" type="curve" smooth="yes"/>
      <point x="173" y="1409"/>
      <point x="90" y="1333"/>
      <point x="35" y="1182" type="curve"/>
      <point x="71" y="1140" type="line"/>
      <point x="162" y="1256"/>
      <point x="217" y="1250"/>
      <point x="248" y="1250" type="curve" smooth="yes"/>
      <point x="374" y="1250"/>
      <point x="353" y="1106"/>
    </contour>
  </outline>
</glyph>
<glyph name="dotaccentcomb" format="2">
  <unicode hex="0307"/>
  <anchor x="237" y="986" name="_top"/>
  <anchor x="237" y="1424" name="top"/>
  <outline>
    <contour>
      <point x="237" y="1082" type="curve" smooth="yes"/>
      <point x="329" y="1082"/>
      <point x="405" y="1157"/>
      <point x="405" y="1249" type="curve" smooth="yes"/>
      <point x="405" y="1341"/>
      <point x="330" y="1414"/>
      <point x="237" y="1414" type="curve" smooth="yes"/>
      <point x="144" y="1414"/>
      <point x="69" y="1341"/>
      <point x="69" y="1249" type="curve" smooth="yes"/>
      <point x="69" y="1157"/>
      <point x="144" y="1082"/>
    </contour>
  </outline>
</glyph>
<glyph name="ringcomb" format="2">
  <unicode hex="030A"/>
  <note>
ring
</note>
  <anchor x="287" y="986" name="_top"/>
  <anchor x="287" y="1464" name="top"/>
  <outline>
    <contour>
      <point x="287" y="1030" type="curve" smooth="yes"/>
      <point x="404" y="1030"/>
      <point x="499" y="1125"/>
      <point x="499" y="1241" type="curve" smooth="yes"/>
      <point x="499" y="1358"/>
      <point x="404" y="1454"/>
      <point x="287" y="1454" type="curve" smooth="yes"/>
      <point x="170" y="1454"/>
      <point x="75" y="1358"/>
      <point x="75" y="1241" type="curve" smooth="yes"/>
      <point x="75" y="1125"/>
      <point x="170" y="1030"/>
    </contour>
    <contour>
      <point x="287" y="1132" type="curve" smooth="yes"/>
      <point x="227" y="1132"/>
      <point x="179" y="1181"/>
      <point x="179" y="1241" type="curve" smooth="yes"/>
      <point x="179" y="1302"/>
      <point x="227" y="1351"/>
      <point x="287" y="1351" type="curve" smooth="yes"/>
      <point x="347" y="1351"/>
      <point x="395" y="1302"/>
      <point x="395" y="1241" type="curve" smooth="yes"/>
      <point x="395" y="1181"/>
      <point x="347" y="1132"/>
    </contour>
  </outline>
</glyph>
<glyph name="cedillacomb" format="2">
  <unicode hex="0327"/>
  <anchor x="307" y="0" name="_bottom"/>
  <anchor x="306.5" y="-460" name="bottom"/>
  <outline>
    <contour>
      <point x="273" y="-460" type="curve" smooth="yes"/>
      <point x="470" y="-460"/>
      <point x="564" y="-410"/>
      <point x="564" y="-299" type="curve" smooth="yes"/>
      <point x="564" y="-163"/>
      <point x="455" y="-84"/>
      <point x="321" y="-136" type="curve" smooth="yes"/>
      <point x="348" y="-125"/>
      <point x="275" y="-164"/>
      <point x="236" y="-180" type="curve"/>
      <point x="115" y="-249" type="line"/>
      <point x="243" y="-226"/>
      <point x="223" y="-229"/>
      <point x="268" y="-229" type="curve" smooth="yes"/>
      <point x="335" y="-229"/>
      <point x="374" y="-257"/>
      <point x="374" y="-299" type="curve" smooth="yes"/>
      <point x="374" y="-353"/>
      <point x="324" y="-385"/>
      <point x="249" y="-385" type="curve" smooth="yes"/>
      <point x="186" y="-385"/>
      <point x="143" y="-376"/>
      <point x="49" y="-346" type="curve"/>
      <point x="49" y="-411" type="line"/>
      <point x="135" y="-446"/>
      <point x="200" y="-460"/>
    </contour>
    <contour>
      <point x="114" y="-250" type="line"/>
      <point x="310" y="-185" type="line"/>
      <point x="408" y="-2" type="line"/>
      <point x="243" y="-2" type="line"/>
    </contour>
  </outline>
</glyph>
<glyph name="slashshortcomb" format="2">
  <unicode hex="0337"/>
  <anchor x="416.5" y="710" name="_center"/>
  <outline>
    <contour>
      <point x="71" y="446" type="line"/>
      <point x="811" y="891" type="line"/>
      <point x="761" y="974" type="line"/>
      <point x="22" y="529" type="line"/>
    </contour>
  </outline>
</glyph>
<glyph name="Dje-cy" format="2">
  <advance width="1698"/>
  <unicode hex="0402"/>
  <outline>
    <contour>
      <point x="1017" y="-40" type="line"/>
      <point x="1440" y="-40"/>
      <point x="1582" y="173"/>
      <point x="1582" y="442" type="curve" smooth="yes"/>
      <point x="1582" y="732"/>
      <point x="1417" y="897"/>
      <point x="1157" y="897" type="curve" smooth="yes"/>
      <point x="1023" y="897"/>
      <point x="883" y="853"/>
      <point x="789" y="740" type="curve"/>
      <point x="791" y="1437" type="line"/>
      <point x="410" y="1437" type="line"/>
      <point x="410" y="0" type="line"/>
      <point x="788" y="0" type="line"/>
      <point x="788" y="443" type="line" smooth="yes"/>
      <point x="788" y="558"/>
      <point x="944" y="690"/>
      <point x="1064" y="690" type="curve" smooth="yes"/>
      <point x="1165" y="690"/>
      <point x="1234" y="598"/>
      <point x="1234" y="419" type="curve" smooth="yes"/>
      <point x="1234" y="292"/>
      <point x="1199" y="153"/>
      <point x="1033" y="153" type="curve"/>
    </contour>
    <contour>
      <point x="88" y="1241" type="line"/>
      <point x="1109" y="1241" type="line"/>
      <point x="1109" y="1437" type="line"/>
      <point x="88" y="1437" type="line"/>
    </contour>
  </outline>
</glyph>
<glyph name="Lje-cy" format="2">
  <advance width="2358"/>
  <unicode hex="0409"/>
  <outline>
    <contour>
      <point x="1193" y="176" type="line"/>
      <point x="1150" y="0" type="line"/>
      <point x="1697" y="-5" type="line" smooth="yes"/>
      <point x="1861" y="-6"/>
      <point x="1982" y="33"/>
      <point x="2101" y="120" type="curve" smooth="yes"/>
      <point x="2198" y="191"/>
      <point x="2266" y="350"/>
      <point x="2266" y="490" type="curve" smooth="yes"/>
      <point x="2266" y="630"/>
      <point x="2198" y="790"/>
      <point x="2101" y="860" type="curve" smooth="yes"/>
      <point x="1981" y="946"/>
      <point x="1861" y="983"/>
      <point x="1697" y="985" type="curve" smooth="yes"/>
      <point x="1350" y="989" type="line"/>
      <point x="1436" y="800" type="line"/>
      <point x="1675" y="802" type="line" smooth="yes"/>
      <point x="1823" y="803"/>
      <point x="1889" y="644"/>
      <point x="1889" y="490" type="curve" smooth="yes"/>
      <point x="1889" y="336"/>
      <point x="1823" y="179"/>
      <point x="1675" y="178" type="curve" smooth="yes"/>
    </contour>
    <contour>
      <point x="513" y="1437" type="line"/>
      <point x="513" y="1022"/>
      <point x="509" y="826"/>
      <point x="495" y="670" type="curve" smooth="yes"/>
      <point x="452" y="191"/>
      <point x="289" y="196"/>
      <point x="163" y="196" type="curve" smooth="yes"/>
      <point x="104" y="196" type="line"/>
      <point x="104" y="0" type="line"/>
      <point x="214" y="0" type="line" smooth="yes"/>
      <point x="459" y="0"/>
      <point x="628" y="139"/>
      <point x="678" y="644" type="curve" smooth="yes"/>
      <point x="697" y="835"/>
      <point x="705" y="1140"/>
      <point x="706" y="1346" type="curve"/>
      <point x="536" y="1241" type="line"/>
      <point x="1279" y="1241" type="line"/>
      <point x="1110" y="1410" type="line"/>
      <point x="1110" y="1" type="line"/>
      <point x="1497" y="2" type="line"/>
      <point x="1497" y="1437" type="line"/>
    </contour>
  </outline>
</glyph>
<glyph name="Nje-cy" format="2">
  <advance width="2324"/>
  <unicode hex="040A"/>
  <outline>
    <contour>
      <point x="138" y="0" type="line"/>
      <point x="514" y="0" type="line"/>
      <point x="514" y="850" type="line"/>
      <point x="188" y="639" type="line"/>
      <point x="1443" y="639" type="line"/>
      <point x="1116" y="850" type="line"/>
      <point x="1116" y="0" type="line"/>
      <point x="1492" y="0" type="line"/>
      <point x="1492" y="1437" type="line"/>
      <point x="1116" y="1437" type="line"/>
      <point x="1116" y="624" type="line"/>
      <point x="1443" y="835" type="line"/>
      <point x="188" y="835" type="line"/>
      <point x="514" y="624" type="line"/>
      <point x="514" y="1437" type="line"/>
      <point x="138" y="1437" type="line"/>
    </contour>
    <contour>
      <point x="1159" y="176" type="line"/>
      <point x="1116" y="0" type="line"/>
      <point x="1663" y="-5" type="line" smooth="yes"/>
      <point x="1827" y="-6"/>
      <point x="1948" y="33"/>
      <point x="2067" y="120" type="curve" smooth="yes"/>
      <point x="2164" y="191"/>
      <point x="2232" y="350"/>
      <point x="2232" y="490" type="curve" smooth="yes"/>
      <point x="2232" y="630"/>
      <point x="2164" y="790"/>
      <point x="2067" y="860" type="curve" smooth="yes"/>
      <point x="1947" y="946"/>
      <point x="1827" y="983"/>
      <point x="1663" y="985" type="curve" smooth="yes"/>
      <point x="1316" y="989" type="line"/>
      <point x="1402" y="800" type="line"/>
      <point x="1641" y="802" type="line" smooth="yes"/>
      <point x="1789" y="803"/>
      <point x="1855" y="644"/>
      <point x="1855" y="490" type="curve" smooth="yes"/>
      <point x="1855" y="336"/>
      <point x="1789" y="179"/>
      <point x="1641" y="178" type="curve" smooth="yes"/>
    </contour>
  </outline>
</glyph>
<glyph name="Tshe-cy" format="2">
  <advance width="1698"/>
  <unicode hex="040B"/>
  <outline>
    <contour>
      <point x="791" y="1437" type="line"/>
      <point x="410" y="1437" type="line"/>
      <point x="410" y="0" type="line"/>
      <point x="788" y="0" type="line"/>
      <point x="788" y="443" type="line" smooth="yes"/>
      <point x="788" y="558"/>
      <point x="971" y="690"/>
      <point x="1064" y="690" type="curve" smooth="yes"/>
      <point x="1153" y="690"/>
      <point x="1204" y="569"/>
      <point x="1204" y="419" type="curve" smooth="yes"/>
      <point x="1204" y="0" type="line"/>
      <point x="1582" y="0" type="line"/>
      <point x="1582" y="512" type="line" smooth="yes"/>
      <point x="1582" y="729"/>
      <point x="1417" y="897"/>
      <point x="1157" y="897" type="curve" smooth="yes"/>
      <point x="964" y="897"/>
      <point x="759" y="805"/>
      <point x="695" y="549" type="curve"/>
      <point x="787" y="280" type="line"/>
    </contour>
    <contour>
      <point x="88" y="1241" type="line"/>
      <point x="1109" y="1241" type="line"/>
      <point x="1109" y="1437" type="line"/>
      <point x="88" y="1437" type="line"/>
    </contour>
  </outline>
</glyph>
<glyph name="Be-cy" format="2">
  <advance width="1401"/>
  <unicode hex="0411"/>
  <outline>
    <contour>
      <point x="176" y="0" type="line"/>
      <point x="836" y="0" type="line" smooth="yes"/>
      <point x="1139" y="0"/>
      <point x="1310" y="164"/>
      <point x="1310" y="427" type="curve" smooth="yes"/>
      <point x="1310" y="690"/>
      <point x="1139" y="854"/>
      <point x="836" y="854" type="curve" smooth="yes"/>
      <point x="394" y="854" type="line"/>
      <point x="563" y="685" type="line"/>
      <point x="563" y="1437" type="line"/>
      <point x="176" y="1437" type="line"/>
    </contour>
    <contour>
      <point x="563" y="24" type="line"/>
      <point x="563" y="829" type="line"/>
      <point x="394" y="662" type="line"/>
      <point x="693" y="664" type="line" smooth="yes"/>
      <point x="848" y="665"/>
      <point x="949" y="568"/>
      <point x="949" y="427" type="curve" smooth="yes"/>
      <point x="949" y="286"/>
      <point x="848" y="190"/>
      <point x="693" y="190" type="curve" smooth="yes"/>
      <point x="394" y="190" type="line"/>
    </contour>
    <contour>
      <point x="1101" y="1241" type="line"/>
      <point x="1101" y="1437" type="line"/>
      <point x="181" y="1437" type="line"/>
      <point x="181" y="1241" type="line"/>
    </contour>
  </outline>
</glyph>
<glyph name="De-cy" format="2">
  <advance width="1731"/>
  <unicode hex="0414"/>
  <outline>
    <contour>
      <point x="93" y="0" type="line"/>
      <point x="1605" y="0" type="line"/>
      <point x="1605" y="196" type="line"/>
      <point x="1085" y="196" type="line"/>
      <point x="1435" y="17" type="line"/>
      <point x="1435" y="1430" type="line"/>
      <point x="451" y="1430" type="line"/>
      <point x="451" y="1234" type="line"/>
      <point x="1398" y="1234" type="line"/>
      <point x="1048" y="1409" type="line"/>
      <point x="1048" y="17" type="line"/>
      <point x="1398" y="196" type="line"/>
      <point x="93" y="196" type="line"/>
    </contour>
    <contour>
      <point x="451" y="125" type="line"/>
      <point x="695" y="275"/>
      <point x="639" y="551"/>
      <point x="642" y="1401" type="curve"/>
      <point x="451" y="1401" type="line"/>
      <point x="448" y="552"/>
      <point x="494" y="274"/>
      <point x="195" y="125" type="curve"/>
    </contour>
    <component base="_cyrillicdescender01.case" xOffset="1419"/>
    <component base="_cyrillicdescender01.case" xScale="-1" xOffset="312"/>
  </outline>
</glyph>
<glyph name="Zhe-cy" format="2">
  <advance width="2313"/>
  <unicode hex="0416"/>
  <guideline x="2052" y="370" angle="127.3996"/>
  <anchor x="2293" y="0" name="bottomright"/>
  <anchor x="1157" y="1437" name="top"/>
  <outline>
    <contour>
      <point x="1875" y="0" type="line"/>
      <point x="2242" y="0" type="line"/>
      <point x="1616" y="840" type="line"/>
      <point x="1353" y="722" type="line"/>
    </contour>
    <contour>
      <point x="1004" y="0" type="line"/>
      <point x="1309" y="0" type="line"/>
      <point x="1309" y="1437" type="line"/>
      <point x="1004" y="1437" type="line"/>
    </contour>
    <contour>
      <point x="1106" y="630" type="line"/>
      <point x="1627" y="630" type="line"/>
      <point x="1627" y="856" type="line"/>
      <point x="1106" y="856" type="line"/>
    </contour>
    <contour>
      <point x="1385" y="771" type="line"/>
      <point x="1618" y="705" type="line"/>
      <point x="2176" y="1437" type="line"/>
      <point x="1896" y="1437" type="line"/>
    </contour>
    <contour>
      <point x="438" y="0" type="line"/>
      <point x="960" y="722" type="line"/>
      <point x="697" y="840" type="line"/>
      <point x="71" y="0" type="line"/>
    </contour>
    <contour>
      <point x="1207" y="630" type="line"/>
      <point x="1207" y="856" type="line"/>
      <point x="686" y="856" type="line"/>
      <point x="686" y="630" type="line"/>
    </contour>
    <contour>
      <point x="928" y="771" type="line"/>
      <point x="417" y="1437" type="line"/>
      <point x="137" y="1437" type="line"/>
      <point x="695" y="705" type="line"/>
    </contour>
  </outline>
</glyph>
<glyph name="Ze-cy" format="2">
  <advance width="1468"/>
  <unicode hex="0417"/>
  <anchor x="734" y="0" name="bottom"/>
  <anchor x="734" y="1437" name="top"/>
  <outline>
    <contour>
      <point x="688" y="-21" type="curve" smooth="yes"/>
      <point x="1160" y="-21"/>
      <point x="1362" y="109"/>
      <point x="1362" y="412" type="curve" smooth="yes"/>
      <point x="1362" y="660"/>
      <point x="1242" y="726"/>
      <point x="1011" y="817" type="curve"/>
      <point x="920" y="677" type="line"/>
      <point x="1171" y="729"/>
      <point x="1278" y="846"/>
      <point x="1278" y="1066" type="curve" smooth="yes"/>
      <point x="1278" y="1345"/>
      <point x="1112" y="1465"/>
      <point x="726" y="1465" type="curve" smooth="yes"/>
      <point x="457" y="1465"/>
      <point x="285" y="1369"/>
      <point x="203" y="1239" type="curve"/>
      <point x="463" y="1145" type="line"/>
      <point x="500" y="1206"/>
      <point x="588" y="1287"/>
      <point x="721" y="1287" type="curve" smooth="yes"/>
      <point x="860" y="1287"/>
      <point x="920" y="1217"/>
      <point x="920" y="1053" type="curve" smooth="yes"/>
      <point x="920" y="886"/>
      <point x="846" y="815"/>
      <point x="672" y="815" type="curve" smooth="yes"/>
      <point x="501" y="815" type="line"/>
      <point x="501" y="677" type="line"/>
      <point x="676" y="677" type="line" smooth="yes"/>
      <point x="881" y="677"/>
      <point x="969" y="599"/>
      <point x="969" y="418" type="curve" smooth="yes"/>
      <point x="969" y="229"/>
      <point x="887" y="148"/>
      <point x="695" y="148" type="curve" smooth="yes"/>
      <point x="566" y="148"/>
      <point x="417" y="206"/>
      <point x="417" y="332" type="curve"/>
      <point x="100" y="279" type="line"/>
      <point x="170" y="73"/>
      <point x="334" y="-21"/>
    </contour>
  </outline>
</glyph>
<glyph name="U-cy" format="2">
  <advance width="1386"/>
  <unicode hex="0423"/>
  <guideline x="999" y="949" angle="64.0718"/>
  <anchor x="693" y="1437" name="top"/>
  <outline>
    <contour>
      <point x="300" y="0" type="line"/>
      <point x="407" y="0" type="line" smooth="yes"/>
      <point x="623" y="0"/>
      <point x="670" y="41"/>
      <point x="767" y="261" type="curve" smooth="yes"/>
      <point x="1286" y="1437" type="line"/>
      <point x="1032" y="1437" type="line"/>
      <point x="524" y="266" type="line" smooth="yes"/>
      <point x="499" y="209"/>
      <point x="444" y="169"/>
      <point x="373" y="169" type="curve" smooth="yes"/>
      <point x="300" y="169" type="line"/>
    </contour>
    <contour>
      <point x="606" y="396" type="line"/>
      <point x="803" y="771" type="line"/>
      <point x="483" y="1437" type="line"/>
      <point x="100" y="1437" type="line"/>
    </contour>
  </outline>
</glyph>
<glyph name="Ef-cy" format="2">
  <advance width="1761"/>
  <unicode hex="0424"/>
  <outline>
    <contour>
      <point x="791" y="176" type="curve"/>
      <point x="791" y="348" type="line"/>
      <point x="570" y="348"/>
      <point x="447" y="475"/>
      <point x="447" y="713" type="curve" smooth="yes"/>
      <point x="447" y="952"/>
      <point x="570" y="1089"/>
      <point x="791" y="1089" type="curve"/>
      <point x="791" y="1261" type="line"/>
      <point x="377" y="1261"/>
      <point x="106" y="1044"/>
      <point x="106" y="714" type="curve" smooth="yes"/>
      <point x="106" y="387"/>
      <point x="372" y="176"/>
    </contour>
    <contour>
      <point x="687" y="0" type="line"/>
      <point x="1074" y="0" type="line"/>
      <point x="1074" y="1437" type="line"/>
      <point x="687" y="1437" type="line"/>
    </contour>
    <contour>
      <point x="971" y="176" type="line"/>
      <point x="1390" y="176"/>
      <point x="1655" y="387"/>
      <point x="1655" y="714" type="curve" smooth="yes"/>
      <point x="1655" y="1044"/>
      <point x="1384" y="1261"/>
      <point x="971" y="1261" type="curve"/>
      <point x="971" y="1089" type="line"/>
      <point x="1194" y="1089"/>
      <point x="1318" y="952"/>
      <point x="1318" y="714" type="curve" smooth="yes"/>
      <point x="1318" y="476"/>
      <point x="1194" y="348"/>
      <point x="971" y="348" type="curve"/>
    </contour>
  </outline>
</glyph>
<glyph name="Che-cy" format="2">
  <advance width="1426"/>
  <unicode hex="0427"/>
  <anchor x="1586" y="0" name="bottomright"/>
  <anchor x="713" y="1437" name="top"/>
  <outline>
    <contour>
      <point x="907" y="0" type="line"/>
      <point x="1288" y="0" type="line"/>
      <point x="1288" y="1437" type="line"/>
      <point x="910" y="1437" type="line"/>
      <point x="910" y="987" type="line" smooth="yes"/>
      <point x="910" y="872"/>
      <point x="727" y="740"/>
      <point x="634" y="740" type="curve" smooth="yes"/>
      <point x="545" y="740"/>
      <point x="494" y="861"/>
      <point x="494" y="1011" type="curve" smooth="yes"/>
      <point x="494" y="1437" type="line"/>
      <point x="116" y="1437" type="line"/>
      <point x="116" y="918" type="line" smooth="yes"/>
      <point x="116" y="701"/>
      <point x="281" y="533"/>
      <point x="541" y="533" type="curve" smooth="yes"/>
      <point x="734" y="533"/>
      <point x="939" y="625"/>
      <point x="1003" y="881" type="curve"/>
      <point x="911" y="1150" type="line"/>
    </contour>
  </outline>
</glyph>
<glyph name="Softsign-cy" format="2">
  <advance width="1367"/>
  <unicode hex="042C"/>
  <outline>
    <contour>
      <point x="175" y="0" type="line"/>
      <point x="706" y="-5" type="line" smooth="yes"/>
      <point x="870" y="-5"/>
      <point x="991" y="33"/>
      <point x="1110" y="120" type="curve" smooth="yes"/>
      <point x="1207" y="190"/>
      <point x="1275" y="350"/>
      <point x="1275" y="490" type="curve" smooth="yes"/>
      <point x="1275" y="630"/>
      <point x="1207" y="790"/>
      <point x="1110" y="860" type="curve" smooth="yes"/>
      <point x="991" y="947"/>
      <point x="870" y="985"/>
      <point x="706" y="985" type="curve" smooth="yes"/>
      <point x="375" y="989" type="line"/>
      <point x="551" y="890" type="line"/>
      <point x="551" y="1437" type="line"/>
      <point x="175" y="1437" type="line"/>
    </contour>
    <contour>
      <point x="551" y="18" type="line"/>
      <point x="551" y="962" type="line"/>
      <point x="461" y="800" type="line"/>
      <point x="684" y="802" type="line" smooth="yes"/>
      <point x="832" y="802"/>
      <point x="898" y="644"/>
      <point x="898" y="490" type="curve" smooth="yes"/>
      <point x="898" y="336"/>
      <point x="832" y="178"/>
      <point x="684" y="178" type="curve" smooth="yes"/>
      <point x="218" y="176" type="line"/>
    </contour>
  </outline>
</glyph>
<glyph name="be-cy" format="2">
  <advance width="1303"/>
  <unicode hex="0431"/>
  <outline>
    <contour>
      <point x="654" y="-42" type="curve" smooth="yes"/>
      <point x="1003" y="-42"/>
      <point x="1224" y="149"/>
      <point x="1224" y="447" type="curve" smooth="yes"/>
      <point x="1224" y="746"/>
      <point x="998" y="944"/>
      <point x="654" y="944" type="curve" smooth="yes"/>
      <point x="568" y="944"/>
      <point x="488" y="930"/>
      <point x="421" y="910" type="curve"/>
      <point x="452" y="782" type="line"/>
      <point x="497" y="1017"/>
      <point x="586" y="1183"/>
      <point x="735" y="1192" type="curve" smooth="yes"/>
      <point x="885" y="1201"/>
      <point x="1042" y="1217"/>
      <point x="1157" y="1431" type="curve"/>
      <point x="1005" y="1466" type="line"/>
      <point x="930" y="1361"/>
      <point x="839" y="1354"/>
      <point x="735" y="1346" type="curve" smooth="yes"/>
      <point x="288" y="1314"/>
      <point x="83" y="945"/>
      <point x="83" y="447" type="curve" smooth="yes"/>
      <point x="83" y="149"/>
      <point x="305" y="-42"/>
    </contour>
    <contour>
      <point x="654" y="147" type="curve" smooth="yes"/>
      <point x="546" y="147"/>
      <point x="467" y="273"/>
      <point x="467" y="446" type="curve" smooth="yes"/>
      <point x="467" y="622"/>
      <point x="547" y="755"/>
      <point x="654" y="755" type="curve" smooth="yes"/>
      <point x="762" y="755"/>
      <point x="843" y="616"/>
      <point x="843" y="447" type="curve" smooth="yes"/>
      <point x="843" y="275"/>
      <point x="762" y="147"/>
    </contour>
  </outline>
</glyph>
<glyph name="ge-cy" format="2">
  <advance width="1030"/>
  <unicode hex="0433"/>
  <anchor x="1010" y="0" name="bottomright"/>
  <anchor x="294" y="495" name="center"/>
  <anchor x="515" y="1016" name="top"/>
  <outline>
    <contour>
      <point x="107" y="1016" type="line"/>
      <point x="107" y="0" type="line"/>
      <point x="485" y="0" type="line"/>
      <point x="485" y="998" type="line"/>
      <point x="162" y="815" type="line"/>
      <point x="953" y="815" type="line"/>
      <point x="953" y="1016" type="line"/>
    </contour>
  </outline>
</glyph>
<glyph name="de-cy" format="2">
  <advance width="1414"/>
  <unicode hex="0434"/>
  <outline>
    <contour>
      <point x="84" y="0" type="line"/>
      <point x="1225" y="0" type="line"/>
      <point x="1225" y="201" type="line"/>
      <point x="738" y="201" type="line"/>
      <point x="1104" y="12" type="line"/>
      <point x="1104" y="1016" type="line"/>
      <point x="324" y="1016" type="line"/>
      <point x="324" y="815" type="line"/>
      <point x="1078" y="815" type="line"/>
      <point x="732" y="1001" type="line"/>
      <point x="732" y="12" type="line"/>
      <point x="1078" y="201" type="line"/>
      <point x="84" y="201" type="line"/>
    </contour>
    <contour>
      <point x="397" y="120" type="line"/>
      <point x="546" y="259"/>
      <point x="502" y="359"/>
      <point x="506" y="996" type="curve"/>
      <point x="324" y="996" type="line"/>
      <point x="320" y="358"/>
      <point x="348" y="252"/>
      <point x="152" y="112" type="curve"/>
    </contour>
    <component base="_cyrillicdescender02" xOffset="990"/>
    <component base="_cyrillicdescender02" xScale="-1" xOffset="382"/>
  </outline>
</glyph>
<glyph name="ze-cy" format="2">
  <advance width="1188"/>
  <unicode hex="0437"/>
  <anchor x="594" y="0" name="bottom"/>
  <anchor x="594" y="1016" name="top"/>
  <outline>
    <contour>
      <point x="552" y="-40" type="curve" smooth="yes"/>
      <point x="935" y="-40"/>
      <point x="1111" y="49"/>
      <point x="1111" y="274" type="curve" smooth="yes"/>
      <point x="1111" y="450"/>
      <point x="1017" y="520"/>
      <point x="833" y="558" type="curve"/>
      <point x="833" y="456" type="line"/>
      <point x="977" y="510"/>
      <point x="1038" y="596"/>
      <point x="1038" y="736" type="curve" smooth="yes"/>
      <point x="1038" y="941"/>
      <point x="875" y="1035"/>
      <point x="581" y="1035" type="curve" smooth="yes"/>
      <point x="331" y="1035"/>
      <point x="203" y="947"/>
      <point x="149" y="788" type="curve"/>
      <point x="397" y="770" type="line"/>
      <point x="398" y="839"/>
      <point x="509" y="857"/>
      <point x="577" y="857" type="curve" smooth="yes"/>
      <point x="686" y="857"/>
      <point x="697" y="773"/>
      <point x="697" y="724" type="curve" smooth="yes"/>
      <point x="697" y="573"/>
      <point x="644" y="581"/>
      <point x="541" y="581" type="curve" smooth="yes"/>
      <point x="397" y="581" type="line"/>
      <point x="397" y="446" type="line"/>
      <point x="544" y="446" type="line" smooth="yes"/>
      <point x="671" y="446"/>
      <point x="739" y="418"/>
      <point x="739" y="281" type="curve" smooth="yes"/>
      <point x="739" y="198"/>
      <point x="700" y="139"/>
      <point x="557" y="139" type="curve" smooth="yes"/>
      <point x="440" y="139"/>
      <point x="362" y="161"/>
      <point x="357" y="254" type="curve"/>
      <point x="71" y="248" type="line"/>
      <point x="132" y="45"/>
      <point x="251" y="-40"/>
    </contour>
  </outline>
</glyph>
<glyph name="ii-cy" format="2">
  <advance width="1261"/>
  <unicode hex="0438"/>
  <anchor x="1241" y="0" name="bottomright"/>
  <anchor x="631" y="1016" name="top"/>
  <outline>
    <contour>
      <point x="64" y="0" type="line"/>
      <point x="424" y="0" type="line"/>
      <point x="919" y="611" type="line"/>
      <point x="824" y="578" type="line"/>
      <point x="824" y="0" type="line"/>
      <point x="1185" y="0" type="line"/>
      <point x="1185" y="1016" type="line"/>
      <point x="846" y="1016" type="line"/>
      <point x="357" y="379" type="line"/>
      <point x="425" y="404" type="line"/>
      <point x="425" y="1016" type="line"/>
      <point x="64" y="1016" type="line"/>
    </contour>
  </outline>
</glyph>
<glyph name="pe-cy" format="2">
  <advance width="1282"/>
  <unicode hex="043F"/>
  <anchor x="1262" y="0" name="bottomright"/>
  <outline>
    <contour>
      <point x="106" y="0" type="line"/>
      <point x="484" y="0" type="line"/>
      <point x="484" y="815" type="line"/>
      <point x="798" y="815" type="line"/>
      <point x="798" y="0" type="line"/>
      <point x="1176" y="0" type="line"/>
      <point x="1176" y="1016" type="line"/>
      <point x="106" y="1016" type="line"/>
    </contour>
  </outline>
</glyph>
<glyph name="te-cy" format="2">
  <advance width="1206"/>
  <unicode hex="0442"/>
  <anchor x="1186" y="0" name="bottomright"/>
  <outline>
    <contour>
      <point x="414" y="0" type="line"/>
      <point x="792" y="0" type="line"/>
      <point x="792" y="983" type="line"/>
      <point x="490" y="815" type="line"/>
      <point x="1129" y="815" type="line"/>
      <point x="1129" y="1016" type="line"/>
      <point x="77" y="1016" type="line"/>
      <point x="77" y="815" type="line"/>
      <point x="716" y="815" type="line"/>
      <point x="414" y="983" type="line"/>
    </contour>
  </outline>
</glyph>
<glyph name="che-cy" format="2">
  <advance width="1212"/>
  <unicode hex="0447"/>
  <anchor x="1192" y="0" name="bottomright"/>
  <anchor x="606" y="1016" name="top"/>
  <outline>
    <contour>
      <point x="721" y="0" type="line"/>
      <point x="1106" y="0" type="line"/>
      <point x="1106" y="1016" type="line"/>
      <point x="724" y="1016" type="line"/>
      <point x="724" y="630" type="line" smooth="yes"/>
      <point x="724" y="586"/>
      <point x="640" y="492"/>
      <point x="554" y="492" type="curve" smooth="yes"/>
      <point x="475" y="492"/>
      <point x="468" y="573"/>
      <point x="468" y="678" type="curve" smooth="yes"/>
      <point x="468" y="1016" type="line"/>
      <point x="86" y="1016" type="line"/>
      <point x="86" y="578" type="line" smooth="yes"/>
      <point x="86" y="420"/>
      <point x="223" y="302"/>
      <point x="438" y="302" type="curve" smooth="yes"/>
      <point x="585" y="302"/>
      <point x="758" y="357"/>
      <point x="816" y="555" type="curve"/>
      <point x="725" y="848" type="line"/>
    </contour>
  </outline>
</glyph>
<glyph name="ereversed-cy" format="2">
  <advance width="1251"/>
  <unicode hex="044D"/>
  <anchor x="626" y="1016" name="top"/>
  <outline>
    <contour>
      <point x="601" y="-42" type="curve" smooth="yes"/>
      <point x="950" y="-42"/>
      <point x="1171" y="169"/>
      <point x="1171" y="496" type="curve" smooth="yes"/>
      <point x="1171" y="826"/>
      <point x="945" y="1043"/>
      <point x="601" y="1043" type="curve" smooth="yes"/>
      <point x="358" y="1043"/>
      <point x="174" y="935"/>
      <point x="87" y="772" type="curve"/>
      <point x="467" y="772" type="line"/>
      <point x="502" y="828"/>
      <point x="549" y="862"/>
      <point x="600" y="862" type="curve" smooth="yes"/>
      <point x="715" y="862"/>
      <point x="800" y="694"/>
      <point x="800" y="496" type="curve" smooth="yes"/>
      <point x="800" y="296"/>
      <point x="714" y="139"/>
      <point x="600" y="139" type="curve" smooth="yes"/>
      <point x="539" y="139"/>
      <point x="486" y="183"/>
      <point x="451" y="254" type="curve"/>
      <point x="72" y="254" type="line"/>
      <point x="153" y="74"/>
      <point x="342" y="-42"/>
    </contour>
    <contour>
      <point x="367" y="423" type="line"/>
      <point x="923" y="423" type="line"/>
      <point x="923" y="602" type="line"/>
      <point x="367" y="602" type="line"/>
    </contour>
  </outline>
</glyph>
<glyph name="dje-cy" format="2">
  <advance width="1287"/>
  <unicode hex="0452"/>
  <outline>
    <contour>
      <point x="112" y="0" type="line"/>
      <point x="490" y="0" type="line"/>
      <point x="490" y="587" type="line" smooth="yes"/>
      <point x="490" y="702"/>
      <point x="566" y="834"/>
      <point x="666" y="834" type="curve" smooth="yes"/>
      <point x="744" y="834"/>
      <point x="806" y="755"/>
      <point x="806" y="543" type="curve" smooth="yes"/>
      <point x="806" y="30" type="line"/>
      <point x="1184" y="0" type="line"/>
      <point x="1184" y="636" type="line" smooth="yes"/>
      <point x="1184" y="884"/>
      <point x="1025" y="1041"/>
      <point x="759" y="1041" type="curve" smooth="yes"/>
      <point x="555" y="1041"/>
      <point x="461" y="949"/>
      <point x="397" y="693" type="curve"/>
      <point x="489" y="424" type="line"/>
      <point x="493" y="1524" type="line"/>
      <point x="112" y="1524" type="line"/>
    </contour>
    <contour>
      <point x="-42" y="1239" type="line"/>
      <point x="672" y="1239" type="line"/>
      <point x="672" y="1440" type="line"/>
      <point x="-42" y="1440" type="line"/>
    </contour>
    <contour>
      <point x="749" y="-583" type="curve" smooth="yes"/>
      <point x="1024" y="-583"/>
      <point x="1184" y="-447"/>
      <point x="1184" y="-104" type="curve" smooth="yes"/>
      <point x="1184" y="416" type="line"/>
      <point x="806" y="416" type="line"/>
      <point x="806" y="11" type="line" smooth="yes"/>
      <point x="806" y="-148"/>
      <point x="868" y="-381"/>
      <point x="752" y="-381" type="curve" smooth="yes"/>
      <point x="749" y="-381"/>
      <point x="639" y="-381"/>
      <point x="639" y="-321" type="curve" smooth="yes"/>
      <point x="639" y="-310"/>
      <point x="639" y="-292"/>
      <point x="653" y="-249" type="curve"/>
      <point x="414" y="-249" type="line"/>
      <point x="412" y="-275"/>
      <point x="412" y="-318"/>
      <point x="412" y="-318" type="curve" smooth="yes"/>
      <point x="412" y="-531"/>
      <point x="579" y="-583"/>
    </contour>
  </outline>
</glyph>
<glyph name="Fita-cy" format="2">
  <advance width="1782"/>
  <unicode hex="0472"/>
  <anchor x="891" y="0" name="bottom"/>
  <anchor x="891" y="715" name="center"/>
  <anchor x="1082" y="0" name="ogonek"/>
  <anchor x="891" y="1430" name="top"/>
  <anchor x="64" y="1430" name="topleft"/>
  <anchor x="1448" y="1430" name="topright"/>
  <outline>
    <contour>
      <point x="1051" y="590" type="curve" smooth="yes"/>
      <point x="1133" y="590"/>
      <point x="1297" y="632"/>
      <point x="1331" y="750" type="curve"/>
      <point x="1331" y="864" type="line"/>
      <point x="1312" y="766"/>
      <point x="1214" y="758"/>
      <point x="1141" y="758" type="curve" smooth="yes"/>
      <point x="943" y="758"/>
      <point x="900" y="836"/>
      <point x="734" y="836" type="curve" smooth="yes"/>
      <point x="650" y="836"/>
      <point x="487" y="792"/>
      <point x="453" y="674" type="curve"/>
      <point x="453" y="558" type="line"/>
      <point x="471" y="650"/>
      <point x="541" y="664"/>
      <point x="689" y="664" type="curve" smooth="yes"/>
      <point x="772" y="664"/>
      <point x="906" y="590"/>
    </contour>
    <component base="O"/>
  </outline>
</glyph>
<glyph name="Izhitsa-cy" format="2">
  <advance width="1935"/>
  <unicode hex="0474"/>
  <anchor x="968" y="1437" name="top"/>
  <outline>
    <contour>
      <point x="810" y="-26" type="line"/>
      <point x="1370" y="1130" type="line" smooth="yes"/>
      <point x="1407" y="1206"/>
      <point x="1454" y="1275"/>
      <point x="1527" y="1275" type="curve" smooth="yes"/>
      <point x="1569" y="1275"/>
      <point x="1604" y="1243"/>
      <point x="1604" y="1164" type="curve" smooth="yes"/>
      <point x="1604" y="1143"/>
      <point x="1601" y="1115"/>
      <point x="1590" y="1070" type="curve"/>
      <point x="1809" y="1070" type="line"/>
      <point x="1823" y="1098"/>
      <point x="1831" y="1163"/>
      <point x="1831" y="1198" type="curve" smooth="yes"/>
      <point x="1831" y="1375"/>
      <point x="1686" y="1466"/>
      <point x="1485" y="1466" type="curve" smooth="yes"/>
      <point x="1215" y="1466"/>
      <point x="1182" y="1269"/>
      <point x="1048" y="988" type="curve" smooth="yes"/>
      <point x="802" y="472" type="line"/>
      <point x="948" y="472" type="line"/>
      <point x="486" y="1437" type="line"/>
      <point x="100" y="1437" type="line"/>
    </contour>
  </outline>
</glyph>
<glyph name="izhitsa-cy" format="2">
  <advance width="1649"/>
  <unicode hex="0475"/>
  <anchor x="825" y="1016" name="top"/>
  <outline>
    <contour>
      <point x="624" y="-25" type="line"/>
      <point x="735" y="-25" type="line"/>
      <point x="1039" y="568" type="line" smooth="yes"/>
      <point x="1144" y="773"/>
      <point x="1252" y="854"/>
      <point x="1337" y="854" type="curve" smooth="yes"/>
      <point x="1368" y="854"/>
      <point x="1396" y="843"/>
      <point x="1424" y="829" type="curve"/>
      <point x="1579" y="969" type="line"/>
      <point x="1504" y="1018"/>
      <point x="1383" y="1043"/>
      <point x="1295" y="1043" type="curve" smooth="yes"/>
      <point x="1062" y="1043"/>
      <point x="919" y="866"/>
      <point x="766" y="454" type="curve"/>
      <point x="704" y="288" type="line"/>
      <point x="840" y="295" type="line"/>
      <point x="471" y="1016" type="line"/>
      <point x="82" y="1016" type="line"/>
    </contour>
  </outline>
</glyph>
<glyph name="Shha-cy" format="2">
  <advance width="1474"/>
  <unicode hex="04BA"/>
  <anchor x="1454" y="0" name="bottomright"/>
  <outline>
    <contour>
      <point x="138" y="0" type="line"/>
      <point x="525" y="0" type="line"/>
      <point x="525" y="292" type="line" smooth="yes"/>
      <point x="525" y="611"/>
      <point x="662" y="662"/>
      <point x="768" y="662" type="curve" smooth="yes"/>
      <point x="889" y="662"/>
      <point x="975" y="595"/>
      <point x="975" y="316" type="curve" smooth="yes"/>
      <point x="975" y="0" type="line"/>
      <point x="1362" y="0" type="line"/>
      <point x="1362" y="348" type="line" smooth="yes"/>
      <point x="1362" y="757"/>
      <point x="1041" y="855"/>
      <point x="824" y="855" type="curve" smooth="yes"/>
      <point x="632" y="855"/>
      <point x="530" y="778"/>
      <point x="448" y="651" type="curve"/>
      <point x="525" y="604" type="line"/>
      <point x="525" y="1437" type="line"/>
      <point x="138" y="1437" type="line"/>
    </contour>
  </outline>
</glyph>
<glyph name="Germandbls" format="2">
  <advance width="1747"/>
  <unicode hex="1E9E"/>
  <anchor x="864" y="50" name="bottom"/>
  <anchor x="864" y="1430" name="top"/>
  <outline>
    <contour>
      <point x="1076" y="-40" type="curve" smooth="yes"/>
      <point x="1499" y="-40"/>
      <point x="1641" y="170"/>
      <point x="1641" y="418" type="curve" smooth="yes"/>
      <point x="1641" y="763"/>
      <point x="1364" y="825"/>
      <point x="1073" y="917" type="curve" smooth="yes"/>
      <point x="913" y="968"/>
      <point x="971" y="942"/>
      <point x="900" y="968" type="curve"/>
      <point x="1104" y="722" type="line"/>
      <point x="1333" y="1380" type="line"/>
      <point x="1243" y="1435"/>
      <point x="1136" y="1513"/>
      <point x="828" y="1513" type="curve" smooth="yes"/>
      <point x="399" y="1513"/>
      <point x="132" y="1361"/>
      <point x="132" y="1106" type="curve" smooth="yes"/>
      <point x="132" y="0" type="line"/>
      <point x="519" y="0" type="line"/>
      <point x="519" y="1211" type="line" smooth="yes"/>
      <point x="519" y="1248"/>
      <point x="614" y="1320"/>
      <point x="828" y="1320" type="curve" smooth="yes"/>
      <point x="879" y="1320"/>
      <point x="1055" y="1316"/>
      <point x="1193" y="1226" type="curve"/>
      <point x="996" y="1421" type="line"/>
      <point x="769" y="737" type="line"/>
      <point x="876" y="707"/>
      <point x="949" y="684"/>
      <point x="1022" y="659" type="curve" smooth="yes"/>
      <point x="1170" y="607"/>
      <point x="1308" y="558"/>
      <point x="1308" y="399" type="curve" smooth="yes"/>
      <point x="1308" y="292"/>
      <point x="1258" y="153"/>
      <point x="1092" y="153" type="curve" smooth="yes"/>
      <point x="1008" y="153"/>
      <point x="852" y="189"/>
      <point x="744" y="276" type="curve"/>
      <point x="701" y="67" type="line"/>
      <point x="762" y="9"/>
      <point x="871" y="-40"/>
    </contour>
  </outline>
</glyph>
<glyph name="endash" format="2">
  <advance width="1304"/>
  <unicode hex="2013"/>
  <note>
endash
</note>
  <outline>
    <contour>
      <point x="75" y="403" type="line"/>
      <point x="1112" y="403" type="line"/>
      <point x="1229" y="711" type="line"/>
      <point x="190" y="711" type="line"/>
    </contour>
  </outline>
</glyph>
<glyph name="daggerdbl" format="2">
  <advance width="1334"/>
  <unicode hex="2021"/>
  <note>
daggerdbl
</note>
  <outline>
    <contour>
      <point x="667" y="-300" type="curve" smooth="yes"/>
      <point x="751" y="-300"/>
      <point x="812" y="-197"/>
      <point x="812" y="-112" type="curve" smooth="yes"/>
      <point x="812" y="-22"/>
      <point x="800" y="63"/>
      <point x="783" y="117" type="curve"/>
      <point x="841" y="100"/>
      <point x="937" y="88"/>
      <point x="1054" y="88" type="curve" smooth="yes"/>
      <point x="1139" y="88"/>
      <point x="1202" y="126"/>
      <point x="1202" y="178" type="curve" smooth="yes"/>
      <point x="1202" y="230"/>
      <point x="1139" y="268"/>
      <point x="1054" y="268" type="curve" smooth="yes"/>
      <point x="928" y="268"/>
      <point x="818" y="248"/>
      <point x="763" y="225" type="curve"/>
      <point x="787" y="298"/>
      <point x="811" y="485"/>
      <point x="811" y="551" type="curve"/>
      <point x="811" y="553" type="line"/>
      <point x="811" y="616"/>
      <point x="788" y="804"/>
      <point x="763" y="879" type="curve"/>
      <point x="818" y="856"/>
      <point x="928" y="836"/>
      <point x="1054" y="836" type="curve" smooth="yes"/>
      <point x="1139" y="836"/>
      <point x="1202" y="874"/>
      <point x="1202" y="926" type="curve" smooth="yes"/>
      <point x="1202" y="978"/>
      <point x="1139" y="1016"/>
      <point x="1054" y="1016" type="curve" smooth="yes"/>
      <point x="937" y="1016"/>
      <point x="841" y="1004"/>
      <point x="783" y="987" type="curve"/>
      <point x="800" y="1041"/>
      <point x="812" y="1126"/>
      <point x="812" y="1216" type="curve" smooth="yes"/>
      <point x="812" y="1301"/>
      <point x="751" y="1404"/>
      <point x="667" y="1404" type="curve" smooth="yes"/>
      <point x="583" y="1404"/>
      <point x="522" y="1301"/>
      <point x="522" y="1216" type="curve" smooth="yes"/>
      <point x="522" y="1126"/>
      <point x="534" y="1041"/>
      <point x="551" y="987" type="curve"/>
      <point x="493" y="1004"/>
      <point x="397" y="1016"/>
      <point x="280" y="1016" type="curve" smooth="yes"/>
      <point x="195" y="1016"/>
      <point x="132" y="978"/>
      <point x="132" y="926" type="curve" smooth="yes"/>
      <point x="132" y="874"/>
      <point x="195" y="836"/>
      <point x="280" y="836" type="curve" smooth="yes"/>
      <point x="406" y="836"/>
      <point x="516" y="856"/>
      <point x="571" y="879" type="curve"/>
      <point x="547" y="806"/>
      <point x="523" y="619"/>
      <point x="523" y="553" type="curve"/>
      <point x="523" y="552" type="line"/>
      <point x="523" y="489"/>
      <point x="546" y="300"/>
      <point x="571" y="225" type="curve"/>
      <point x="516" y="248"/>
      <point x="406" y="268"/>
      <point x="280" y="268" type="curve" smooth="yes"/>
      <point x="195" y="268"/>
      <point x="132" y="230"/>
      <point x="132" y="178" type="curve" smooth="yes"/>
      <point x="132" y="126"/>
      <point x="195" y="88"/>
      <point x="280" y="88" type="curve" smooth="yes"/>
      <point x="397" y="88"/>
      <point x="493" y="100"/>
      <point x="551" y="117" type="curve"/>
      <point x="534" y="63"/>
      <point x="522" y="-22"/>
      <point x="522" y="-112" type="curve" smooth="yes"/>
      <point x="522" y="-197"/>
      <point x="583" y="-300"/>
    </contour>
  </outline>
</glyph>
<glyph name="bullet" format="2">
  <advance width="999"/>
  <unicode hex="2022"/>
  <note>
bullet
</note>
  <outline>
    <contour>
      <point x="498" y="372" type="curve" smooth="yes"/>
      <point x="717" y="372"/>
      <point x="872" y="527"/>
      <point x="872" y="745" type="curve" smooth="yes"/>
      <point x="872" y="962"/>
      <point x="718" y="1115"/>
      <point x="500" y="1115" type="curve" smooth="yes"/>
      <point x="282" y="1115"/>
      <point x="127" y="962"/>
      <point x="127" y="745" type="curve" smooth="yes"/>
      <point x="127" y="527"/>
      <point x="281" y="372"/>
    </contour>
  </outline>
</glyph>
<glyph name="guilsinglleft" format="2">
  <advance width="756"/>
  <unicode hex="2039"/>
  <note>
guilsinglleft
</note>
  <outline>
    <contour>
      <point x="483" y="-8" type="line"/>
      <point x="657" y="125" type="line"/>
      <point x="395" y="465" type="line"/>
      <point x="660" y="823" type="line"/>
      <point x="466" y="933" type="line"/>
      <point x="94" y="463" type="line"/>
    </contour>
  </outline>
</glyph>
<glyph name="guilsinglright" format="2">
  <advance width="755"/>
  <unicode hex="203A"/>
  <note>
guilsinglright
</note>
  <outline>
    <contour>
      <point x="272" y="-8" type="line"/>
      <point x="661" y="463" type="line"/>
      <point x="289" y="933" type="line"/>
      <point x="96" y="823" type="line"/>
      <point x="360" y="465" type="line"/>
      <point x="98" y="125" type="line"/>
    </contour>
  </outline>
</glyph>
<glyph name="franc" format="2">
  <advance width="1912"/>
  <unicode hex="20A3"/>
  <note>
franc
</note>
  <outline>
    <contour>
      <point x="180" y="0" type="line"/>
      <point x="567" y="0" type="line"/>
      <point x="567" y="799" type="line"/>
      <point x="234" y="610" type="line"/>
      <point x="1167" y="610" type="line"/>
      <point x="1167" y="808" type="line"/>
      <point x="234" y="808" type="line"/>
      <point x="567" y="617" type="line"/>
      <point x="567" y="1412" type="line"/>
      <point x="234" y="1234" type="line"/>
      <point x="1167" y="1234" type="line"/>
      <point x="1167" y="1437" type="line"/>
      <point x="180" y="1437" type="line"/>
    </contour>
    <contour>
      <point x="789" y="0" type="line"/>
      <point x="1167" y="0" type="line"/>
      <point x="1167" y="379" type="line" smooth="yes"/>
      <point x="1167" y="494"/>
      <point x="1243" y="626"/>
      <point x="1343" y="626" type="curve" smooth="yes"/>
      <point x="1371" y="626"/>
      <point x="1520" y="637"/>
      <point x="1481" y="490" type="curve" smooth="yes"/>
      <point x="1477" y="475"/>
      <point x="1464" y="435"/>
      <point x="1444" y="416" type="curve"/>
      <point x="1713" y="368" type="line"/>
      <point x="1761" y="441"/>
      <point x="1766" y="554"/>
      <point x="1766" y="588" type="curve" smooth="yes"/>
      <point x="1766" y="800"/>
      <point x="1555" y="833"/>
      <point x="1436" y="833" type="curve" smooth="yes"/>
      <point x="1218" y="833"/>
      <point x="1158" y="721"/>
      <point x="1094" y="465" type="curve"/>
      <point x="1163" y="216" type="line"/>
      <point x="1167" y="808" type="line"/>
      <point x="789" y="808" type="line"/>
    </contour>
  </outline>
</glyph>
<glyph name="lira" format="2">
  <advance width="1469"/>
  <unicode hex="20A4"/>
  <outline>
    <contour>
      <point x="158" y="-23" type="line"/>
      <point x="1320" y="-23" type="line"/>
      <point x="1320" y="200" type="line"/>
      <point x="158" y="200" type="line"/>
    </contour>
    <contour>
      <point x="159" y="750" type="line"/>
      <point x="1182" y="750" type="line"/>
      <point x="1182" y="912" type="line"/>
      <point x="159" y="912" type="line"/>
    </contour>
    <contour>
      <point x="158" y="200" type="curve"/>
      <point x="473" y="177" type="line"/>
      <point x="633" y="339"/>
      <point x="700" y="542"/>
      <point x="711" y="618" type="curve" smooth="yes"/>
      <point x="754" y="925"/>
      <point x="573" y="943"/>
      <point x="573" y="1122" type="curve" smooth="yes"/>
      <point x="573" y="1239"/>
      <point x="612" y="1279"/>
      <point x="731" y="1279" type="curve" smooth="yes"/>
      <point x="912" y="1279"/>
      <point x="961" y="1198"/>
      <point x="952" y="1122" type="curve"/>
      <point x="1317" y="1122" type="line"/>
      <point x="1327" y="1300"/>
      <point x="1108" y="1473"/>
      <point x="738" y="1473" type="curve" smooth="yes"/>
      <point x="414" y="1473"/>
      <point x="197" y="1329"/>
      <point x="197" y="1106" type="curve" smooth="yes"/>
      <point x="197" y="860"/>
      <point x="399" y="767"/>
      <point x="376" y="633" type="curve" smooth="yes"/>
      <point x="342" y="438"/>
      <point x="346" y="381"/>
    </contour>
    <contour>
      <point x="159" y="420" type="line"/>
      <point x="1182" y="420" type="line"/>
      <point x="1182" y="582" type="line"/>
      <point x="159" y="582" type="line"/>
    </contour>
  </outline>
</glyph>
<glyph name="peseta" format="2">
  <advance width="1689"/>
  <unicode hex="20A7"/>
  <anchor x="947" y="50" name="_bottom"/>
  <anchor x="947" y="565" name="bar"/>
  <anchor x="947" y="-316" name="bottom"/>
  <anchor x="947" y="1430" name="top"/>
  <outline>
    <contour>
      <point x="145" y="478" type="line"/>
      <point x="689" y="478" type="line"/>
      <point x="689" y="667" type="line"/>
      <point x="145" y="667" type="line"/>
    </contour>
    <component base="P" xOffset="304"/>
  </outline>
</glyph>
<glyph name="kip" format="2">
  <advance width="1728"/>
  <unicode hex="20AD"/>
  <outline>
    <contour>
      <point x="1211" y="0" type="line"/>
      <point x="1588" y="0" type="line"/>
      <point x="942" y="820" type="line"/>
      <point x="659" y="702" type="line"/>
    </contour>
    <contour>
      <point x="180" y="0" type="line"/>
      <point x="545" y="0" type="line"/>
      <point x="545" y="1445" type="line"/>
      <point x="180" y="1445" type="line"/>
    </contour>
    <contour>
      <point x="312" y="610" type="line"/>
      <point x="953" y="610" type="line"/>
      <point x="953" y="836" type="line"/>
      <point x="312" y="836" type="line"/>
    </contour>
    <contour>
      <point x="844" y="685" type="line"/>
      <point x="1512" y="1445" type="line"/>
      <point x="1232" y="1445" type="line"/>
      <point x="621" y="751" type="line"/>
    </contour>
  </outline>
</glyph>
<glyph name="peso" format="2">
  <advance width="1760"/>
  <unicode hex="20B1"/>
  <anchor x="850" y="50" name="_bottom"/>
  <anchor x="850" y="565" name="bar"/>
  <anchor x="850" y="-316" name="bottom"/>
  <anchor x="850" y="1430" name="top"/>
  <outline>
    <contour>
      <point x="148" y="1038" type="line"/>
      <point x="1612" y="1038" type="line"/>
      <point x="1612" y="1157" type="line"/>
      <point x="148" y="1157" type="line"/>
    </contour>
    <contour>
      <point x="148" y="778" type="line"/>
      <point x="1612" y="778" type="line"/>
      <point x="1612" y="897" type="line"/>
      <point x="148" y="897" type="line"/>
    </contour>
    <component base="P" xOffset="207"/>
  </outline>
</glyph>
<glyph name="guarani" format="2">
  <advance width="1859"/>
  <unicode hex="20B2"/>
  <anchor x="919" y="0" name="bottom"/>
  <anchor x="919" y="1430" name="top"/>
  <outline>
    <contour>
      <point x="935" y="-45" type="curve" smooth="yes"/>
      <point x="1365" y="-45"/>
      <point x="1689" y="249"/>
      <point x="1716" y="660" type="curve"/>
      <point x="1332" y="660" type="line"/>
      <point x="1319" y="342"/>
      <point x="1162" y="142"/>
      <point x="932" y="142" type="curve" smooth="yes"/>
      <point x="689" y="142"/>
      <point x="529" y="366"/>
      <point x="529" y="708" type="curve" smooth="yes"/>
      <point x="529" y="1051"/>
      <point x="690" y="1280"/>
      <point x="933" y="1280" type="curve" smooth="yes"/>
      <point x="1098" y="1280"/>
      <point x="1219" y="1181"/>
      <point x="1285" y="994" type="curve"/>
      <point x="1665" y="994" type="line"/>
      <point x="1569" y="1270"/>
      <point x="1249" y="1467"/>
      <point x="932" y="1467" type="curve" smooth="yes"/>
      <point x="494" y="1467"/>
      <point x="147" y="1129"/>
      <point x="147" y="713" type="curve" smooth="yes"/>
      <point x="147" y="277"/>
      <point x="476" y="-45"/>
    </contour>
    <contour>
      <point x="1161" y="467" type="line"/>
      <point x="1553" y="467" type="line"/>
      <point x="1553" y="660" type="line"/>
      <point x="1161" y="660" type="line"/>
    </contour>
    <contour>
      <point x="829" y="-165" type="line"/>
      <point x="1015" y="-165" type="line"/>
      <point x="1015" y="1583" type="line"/>
      <point x="829" y="1583" type="line"/>
    </contour>
  </outline>
</glyph>
<glyph name="rupeeIndian" format="2">
  <advance width="1668"/>
  <unicode hex="20B9"/>
  <outline>
    <contour>
      <point x="460" y="553" type="line"/>
      <point x="546" y="553"/>
      <point x="629" y="567"/>
      <point x="726" y="498" type="curve" smooth="yes"/>
      <point x="754" y="478"/>
      <point x="809" y="441"/>
      <point x="875" y="191" type="curve" smooth="yes"/>
      <point x="889" y="137"/>
      <point x="903" y="64"/>
      <point x="917" y="0" type="curve"/>
      <point x="1272" y="0" type="line"/>
      <point x="1248" y="92"/>
      <point x="1223" y="213"/>
      <point x="1210" y="266" type="curve" smooth="yes"/>
      <point x="1163" y="458"/>
      <point x="1091" y="527"/>
      <point x="1078" y="540" type="curve" smooth="yes"/>
      <point x="998" y="620"/>
      <point x="961" y="610"/>
      <point x="898" y="617" type="curve"/>
    </contour>
    <contour>
      <point x="157" y="732" type="line"/>
      <point x="157" y="553" type="line"/>
      <point x="628" y="553" type="line"/>
      <point x="670" y="553" type="line" smooth="yes"/>
      <point x="942" y="553"/>
      <point x="1213" y="675"/>
      <point x="1213" y="997" type="curve" smooth="yes"/>
      <point x="1213" y="1278"/>
      <point x="961" y="1437"/>
      <point x="618" y="1437" type="curve" smooth="yes"/>
      <point x="157" y="1437" type="line"/>
      <point x="157" y="1261" type="line"/>
      <point x="622" y="1261" type="line" smooth="yes"/>
      <point x="757" y="1261"/>
      <point x="836" y="1185"/>
      <point x="836" y="1006" type="curve" smooth="yes"/>
      <point x="836" y="828"/>
      <point x="782" y="732"/>
      <point x="622" y="732" type="curve" smooth="yes"/>
    </contour>
    <contour>
      <point x="157" y="1260" type="line"/>
      <point x="1517" y="1260" type="line"/>
      <point x="1517" y="1437" type="line"/>
      <point x="157" y="1437" type="line"/>
    </contour>
    <contour>
      <point x="157" y="913" type="line"/>
      <point x="1517" y="913" type="line"/>
      <point x="1517" y="1090" type="line"/>
      <point x="157" y="1090" type="line"/>
    </contour>
  </outline>
</glyph>
<glyph name="ruble" format="2">
  <advance width="1696"/>
  <unicode hex="20BD"/>
  <anchor x="954" y="50" name="_bottom"/>
  <anchor x="954" y="565" name="bar"/>
  <anchor x="954" y="-316" name="bottom"/>
  <anchor x="954" y="1430" name="top"/>
  <outline>
    <contour>
      <point x="152" y="478" type="line"/>
      <point x="696" y="478" type="line"/>
      <point x="696" y="667" type="line"/>
      <point x="152" y="667" type="line"/>
    </contour>
    <contour>
      <point x="152" y="148" type="line"/>
      <point x="1096" y="148" type="line"/>
      <point x="1096" y="337" type="line"/>
      <point x="152" y="337" type="line"/>
    </contour>
    <component base="P" xOffset="311"/>
  </outline>
</glyph>
<glyph name="emptyset" format="2">
  <advance width="1236"/>
  <unicode hex="2205"/>
  <outline>
    <contour>
      <point x="625" y="-45" type="curve" smooth="yes"/>
      <point x="925" y="-45"/>
      <point x="1168" y="198"/>
      <point x="1168" y="499" type="curve" smooth="yes"/>
      <point x="1168" y="799"/>
      <point x="925" y="1042"/>
      <point x="625" y="1042" type="curve" smooth="yes"/>
      <point x="324" y="1042"/>
      <point x="81" y="799"/>
      <point x="81" y="499" type="curve" smooth="yes"/>
      <point x="81" y="198"/>
      <point x="324" y="-45"/>
    </contour>
    <contour>
      <point x="625" y="136" type="curve" smooth="yes"/>
      <point x="424" y="136"/>
      <point x="262" y="298"/>
      <point x="262" y="499" type="curve" smooth="yes"/>
      <point x="262" y="699"/>
      <point x="424" y="861"/>
      <point x="625" y="861" type="curve" smooth="yes"/>
      <point x="825" y="861"/>
      <point x="987" y="699"/>
      <point x="987" y="499" type="curve" smooth="yes"/>
      <point x="987" y="298"/>
      <point x="825" y="136"/>
    </contour>
    <component base="slashlongcomb" xOffset="197" yOffset="30"/>
  </outline>
</glyph>
<glyph name="product" format="2">
  <advance width="1730"/>
  <unicode hex="220F"/>
  <note>
product
</note>
  <outline>
    <contour>
      <point x="170" y="-365" type="line"/>
      <point x="544" y="-365" type="line"/>
      <point x="544" y="1133" type="line"/>
      <point x="1184" y="1133" type="line"/>
      <point x="1184" y="-365" type="line"/>
      <point x="1560" y="-365" type="line"/>
      <point x="1560" y="1466" type="line"/>
      <point x="170" y="1466" type="line"/>
    </contour>
  </outline>
</glyph>
<glyph name="summation" format="2">
  <advance width="1748"/>
  <unicode hex="2211"/>
  <note>
summation
</note>
  <outline>
    <contour>
      <point x="136" y="-379" type="line"/>
      <point x="1607" y="-379" type="line"/>
      <point x="1607" y="-52" type="line"/>
      <point x="687" y="-52" type="line"/>
      <point x="1327" y="562" type="line"/>
      <point x="719" y="1130" type="line"/>
      <point x="1591" y="1130" type="line"/>
      <point x="1591" y="1458" type="line"/>
      <point x="169" y="1458" type="line"/>
      <point x="169" y="1189" type="line"/>
      <point x="841" y="556" type="line"/>
      <point x="136" y="-124" type="line"/>
    </contour>
  </outline>
</glyph>
<glyph name="fraction" format="2">
  <unicode hex="2215"/>
  <note>
fraction
</note>
  <outline>
    <contour>
      <point x="-680" y="-69" type="line"/>
      <point x="-387" y="-69" type="line"/>
      <point x="380" y="1470" type="line"/>
      <point x="87" y="1470" type="line"/>
    </contour>
  </outline>
</glyph>
<glyph name="radical" format="2">
  <advance width="1677"/>
  <unicode hex="221A"/>
  <note>
radical
</note>
  <outline>
    <contour>
      <point x="643" y="-52" type="line"/>
      <point x="800" y="-52" type="line"/>
      <point x="1397" y="1359" type="line"/>
      <point x="1543" y="1359" type="line"/>
      <point x="1543" y="1596" type="line"/>
      <point x="1232" y="1596" type="line"/>
      <point x="758" y="522" type="line"/>
      <point x="535" y="1023" type="line"/>
      <point x="129" y="887" type="line"/>
      <point x="203" y="669" type="line"/>
      <point x="325" y="707" type="line"/>
    </contour>
  </outline>
</glyph>
<glyph name="integral" format="2">
  <advance width="1554"/>
  <unicode hex="222B"/>
  <note>
integral
</note>
  <outline>
    <contour>
      <point x="442" y="-514" type="curve" smooth="yes"/>
      <point x="678" y="-514"/>
      <point x="788" y="-393"/>
      <point x="854" y="-70" type="curve" smooth="yes"/>
      <point x="1067" y="975" type="line" smooth="yes"/>
      <point x="1096" y="1116"/>
      <point x="1040" y="1313"/>
      <point x="1182" y="1360" type="curve"/>
      <point x="1185" y="1373"/>
      <point x="1181" y="1388"/>
      <point x="1181" y="1387" type="curve" smooth="yes"/>
      <point x="1181" y="1384"/>
      <point x="1164" y="1325"/>
      <point x="1115" y="1149" type="curve"/>
      <point x="1374" y="1149" type="line"/>
      <point x="1412" y="1267"/>
      <point x="1423" y="1272"/>
      <point x="1423" y="1330" type="curve" smooth="yes"/>
      <point x="1423" y="1485"/>
      <point x="1305" y="1562"/>
      <point x="1114" y="1562" type="curve" smooth="yes"/>
      <point x="876" y="1562"/>
      <point x="767" y="1441"/>
      <point x="701" y="1117" type="curve" smooth="yes"/>
      <point x="489" y="73" type="line" smooth="yes"/>
      <point x="460" y="-67"/>
      <point x="514" y="-264"/>
      <point x="373" y="-311" type="curve"/>
      <point x="370" y="-324"/>
      <point x="374" y="-340"/>
      <point x="374" y="-339" type="curve" smooth="yes"/>
      <point x="374" y="-335"/>
      <point x="390" y="-274"/>
      <point x="432" y="-101" type="curve"/>
      <point x="181" y="-101" type="line"/>
      <point x="148" y="-198"/>
      <point x="131" y="-234"/>
      <point x="131" y="-287" type="curve" smooth="yes"/>
      <point x="131" y="-438"/>
      <point x="253" y="-514"/>
    </contour>
  </outline>
</glyph>
<glyph name="notequal" format="2">
  <advance width="1188"/>
  <unicode hex="2260"/>
  <note>
notequal
</note>
  <outline>
    <contour>
      <point x="694" y="1244" type="line"/>
      <point x="221" y="67" type="line"/>
      <point x="519" y="67" type="line"/>
      <point x="991" y="1244" type="line"/>
    </contour>
    <component base="equal" xOffset="-1" yOffset="66"/>
  </outline>
</glyph>
<glyph name="lozenge" format="2">
  <advance width="1459"/>
  <unicode hex="25CA"/>
  <note>
lozenge
</note>
  <outline>
    <contour>
      <point x="730" y="-596" type="line"/>
      <point x="1330" y="586" type="line"/>
      <point x="730" y="1759" type="line"/>
      <point x="129" y="586" type="line"/>
    </contour>
    <contour>
      <point x="730" y="119" type="line"/>
      <point x="445" y="586" type="line"/>
      <point x="730" y="1048" type="line"/>
      <point x="1014" y="586" type="line"/>
    </contour>
  </outline>
</glyph>
<glyph name="leftanglebracket-math" format="2">
  <advance width="932"/>
  <unicode hex="27E8"/>
  <outline>
    <contour>
      <point x="673" y="140" type="line"/>
      <point x="835" y="283" type="line"/>
      <point x="423" y="700" type="line"/>
      <point x="837" y="1135" type="line"/>
      <point x="655" y="1256" type="line"/>
      <point x="93" y="698" type="line"/>
    </contour>
  </outline>
</glyph>
<glyph name="fl" format="2">
  <advance width="1311"/>
  <unicode hex="F002"/>
  <note>
fl
</note>
  <anchor x="655.5" y="0" name="caret_1"/>
  <outline>
    <contour>
      <point x="293" y="0" type="line"/>
      <point x="655" y="0" type="line"/>
      <point x="655" y="978" type="line" smooth="yes"/>
      <point x="655" y="1138"/>
      <point x="559" y="1352"/>
      <point x="712" y="1352" type="curve" smooth="yes"/>
      <point x="754" y="1352"/>
      <point x="839" y="1348"/>
      <point x="839" y="1269" type="curve"/>
      <point x="1044" y="1175" type="line"/>
      <point x="1058" y="1203"/>
      <point x="1066" y="1268"/>
      <point x="1066" y="1303" type="curve" smooth="yes"/>
      <point x="1066" y="1480"/>
      <point x="871" y="1571"/>
      <point x="670" y="1571" type="curve" smooth="yes"/>
      <point x="425" y="1571"/>
      <point x="293" y="1436"/>
      <point x="293" y="1093" type="curve" smooth="yes"/>
    </contour>
    <contour>
      <point x="77" y="753" type="line"/>
      <point x="923" y="753" type="line"/>
      <point x="923" y="956" type="line"/>
      <point x="77" y="956" type="line"/>
    </contour>
    <contour>
      <point x="838" y="0" type="line"/>
      <point x="1199" y="0" type="line"/>
      <point x="1199" y="1524" type="line"/>
      <point x="838" y="1524" type="line"/>
    </contour>
  </outline>
</glyph>
<glyph name="H.t" format="2">
  <advance width="1635"/>
  <note>
H
</note>
  <anchor x="818" y="50" name="bottom"/>
  <anchor x="818" y="715" name="center"/>
  <anchor x="818" y="1430" name="top"/>
  <anchor x="23" y="1430" name="topleft"/>
  <outline>
    <contour>
      <point x="138" y="0" type="line"/>
      <point x="514" y="0" type="line"/>
      <point x="514" y="848" type="line"/>
      <point x="182" y="640" type="line"/>
      <point x="1454" y="640" type="line"/>
      <point x="1121" y="848" type="line"/>
      <point x="1121" y="0" type="line"/>
      <point x="1497" y="0" type="line"/>
      <point x="1497" y="1437" type="line"/>
      <point x="1121" y="1437" type="line"/>
      <point x="1121" y="626" type="line"/>
      <point x="1454" y="833" type="line"/>
      <point x="182" y="833" type="line"/>
      <point x="514" y="626" type="line"/>
      <point x="514" y="1437" type="line"/>
      <point x="138" y="1437" type="line"/>
    </contour>
  </outline>
</glyph>
<glyph name="O.t" format="2">
  <advance width="1804"/>
  <note>
O
</note>
  <anchor x="902" y="50" name="bottom"/>
  <anchor x="902" y="715" name="center"/>
  <anchor x="1584" y="10" name="ogonek"/>
  <anchor x="902" y="1430" name="top"/>
  <anchor x="70" y="1430" name="topleft"/>
  <anchor x="1734" y="1430" name="topright"/>
  <outline>
    <contour>
      <point x="903" y="-45" type="curve" smooth="yes"/>
      <point x="1352" y="-45"/>
      <point x="1697" y="281"/>
      <point x="1697" y="707" type="curve" smooth="yes"/>
      <point x="1697" y="1133"/>
      <point x="1348" y="1467"/>
      <point x="903" y="1467" type="curve" smooth="yes"/>
      <point x="458" y="1467"/>
      <point x="107" y="1132"/>
      <point x="107" y="707" type="curve" smooth="yes"/>
      <point x="107" y="281"/>
      <point x="453" y="-45"/>
    </contour>
    <contour>
      <point x="903" y="142" type="curve" smooth="yes"/>
      <point x="660" y="142"/>
      <point x="501" y="365"/>
      <point x="501" y="706" type="curve" smooth="yes"/>
      <point x="501" y="1050"/>
      <point x="662" y="1280"/>
      <point x="903" y="1280" type="curve" smooth="yes"/>
      <point x="1143" y="1280"/>
      <point x="1303" y="1050"/>
      <point x="1303" y="706" type="curve" smooth="yes"/>
      <point x="1303" y="364"/>
      <point x="1146" y="142"/>
    </contour>
  </outline>
</glyph>
<glyph name="_cyrillicdescender02" format="2">
  <advance width="1311"/>
  <anchor x="247" y="0" name="_bottomright"/>
  <outline>
    <contour>
      <point x="47" y="0" type="line"/>
      <point x="335" y="0" type="line"/>
      <point x="335" y="201" type="line"/>
      <point x="47" y="201" type="line"/>
    </contour>
    <component base="_cyrillicdescender01" xOffset="110"/>
  </outline>
</glyph>
<glyph name="currency_horz_stroke.case" format="2">
  <advance width="1458"/>
  <anchor x="729" y="729" name="_bar"/>
  <anchor x="729" y="0" name="_bottom"/>
  <anchor x="729" y="515" name="bar"/>
  <anchor x="729" y="-366" name="bottom"/>
  <outline>
    <contour>
      <point x="157" y="526" type="line"/>
      <point x="1301" y="526" type="line"/>
      <point x="1301" y="719" type="line"/>
      <point x="157" y="719" type="line"/>
    </contour>
  </outline>
</glyph>
<glyph name="currency_vert_stroke.case" format="2">
  <advance width="524"/>
  <anchor x="259" y="0" name="_bottom"/>
  <outline>
    <contour>
      <point x="169" y="-165" type="line"/>
      <point x="355" y="-165" type="line"/>
      <point x="355" y="1583" type="line"/>
      <point x="169" y="1583" type="line"/>
    </contour>
  </outline>
</glyph>
<glyph name="currency_vert_stroke" format="2">
  <advance width="510"/>
  <anchor x="199" y="1206" name="_top"/>
  <outline>
    <contour>
      <point x="167" y="56" type="line"/>
      <point x="343" y="56" type="line"/>
      <point x="343" y="1358" type="line"/>
      <point x="167" y="1358" type="line"/>
    </contour>
  </outline>
</glyph>
<glyph name="cyrillic_bar_long" format="2">
  <advance width="1800"/>
  <anchor x="901" y="630" name="_center"/>
  <outline>
    <contour>
      <point x="369" y="532" type="line"/>
      <point x="1433" y="532" type="line"/>
      <point x="1433" y="728" type="line"/>
      <point x="369" y="728" type="line"/>
    </contour>
  </outline>
</glyph>
<glyph name="eight.dnom" format="2">
  <advance width="825"/>
  <note>
eight
</note>
  <outline>
    <contour>
      <point x="407" y="-22" type="curve" smooth="yes"/>
      <point x="683" y="-22"/>
      <point x="803" y="73"/>
      <point x="803" y="267" type="curve" smooth="yes"/>
      <point x="803" y="415"/>
      <point x="657" y="509"/>
      <point x="553" y="539" type="curve" smooth="yes"/>
      <point x="377" y="590"/>
      <point x="316" y="631"/>
      <point x="316" y="720" type="curve" smooth="yes"/>
      <point x="316" y="775"/>
      <point x="358" y="810"/>
      <point x="426" y="810" type="curve" smooth="yes"/>
      <point x="492" y="810"/>
      <point x="533" y="770"/>
      <point x="533" y="707" type="curve" smooth="yes"/>
      <point x="533" y="629"/>
      <point x="481" y="593"/>
      <point x="189" y="546" type="curve"/>
      <point x="558" y="465" type="line"/>
      <point x="685" y="508"/>
      <point x="748" y="569"/>
      <point x="748" y="702" type="curve" smooth="yes"/>
      <point x="748" y="839"/>
      <point x="636" y="963"/>
      <point x="416" y="962" type="curve" smooth="yes"/>
      <point x="201" y="961"/>
      <point x="71" y="849"/>
      <point x="71" y="680" type="curve" smooth="yes"/>
      <point x="71" y="525"/>
      <point x="234" y="453"/>
      <point x="389" y="404" type="curve" smooth="yes"/>
      <point x="528" y="360"/>
      <point x="553" y="324"/>
      <point x="553" y="255" type="curve" smooth="yes"/>
      <point x="553" y="180"/>
      <point x="501" y="139"/>
      <point x="408" y="139" type="curve" smooth="yes"/>
      <point x="311" y="139"/>
      <point x="257" y="175"/>
      <point x="255" y="239" type="curve" smooth="yes"/>
      <point x="253" y="341"/>
      <point x="324" y="424"/>
      <point x="454" y="472" type="curve"/>
      <point x="246" y="533" type="line"/>
      <point x="105" y="498"/>
      <point x="26" y="396"/>
      <point x="26" y="258" type="curve" smooth="yes"/>
      <point x="26" y="72"/>
      <point x="145" y="-22"/>
    </contour>
  </outline>
</glyph>
<glyph name="f_f" format="2">
  <advance width="1672"/>
  <anchor x="837" y="0" name="caret_1"/>
  <outline>
    <contour>
      <point x="838" y="0" type="line"/>
      <point x="1200" y="0" type="line"/>
      <point x="1200" y="978" type="line" smooth="yes"/>
      <point x="1200" y="1138"/>
      <point x="1104" y="1352"/>
      <point x="1257" y="1352" type="curve" smooth="yes"/>
      <point x="1299" y="1352"/>
      <point x="1384" y="1348"/>
      <point x="1384" y="1269" type="curve" smooth="yes"/>
      <point x="1384" y="1248"/>
      <point x="1381" y="1220"/>
      <point x="1370" y="1175" type="curve"/>
      <point x="1589" y="1175" type="line"/>
      <point x="1603" y="1203"/>
      <point x="1611" y="1268"/>
      <point x="1611" y="1303" type="curve" smooth="yes"/>
      <point x="1611" y="1480"/>
      <point x="1416" y="1571"/>
      <point x="1215" y="1571" type="curve" smooth="yes"/>
      <point x="970" y="1571"/>
      <point x="838" y="1436"/>
      <point x="838" y="1093" type="curve" smooth="yes"/>
    </contour>
    <contour>
      <point x="293" y="0" type="line"/>
      <point x="655" y="0" type="line"/>
      <point x="655" y="839" type="line" smooth="yes"/>
      <point x="655" y="999"/>
      <point x="559" y="1213"/>
      <point x="712" y="1213" type="curve" smooth="yes"/>
      <point x="754" y="1213"/>
      <point x="838" y="1209"/>
      <point x="838" y="1130" type="curve"/>
      <point x="838" y="1036" type="line"/>
      <point x="1044" y="1036" type="line"/>
      <point x="1058" y="1064"/>
      <point x="1066" y="1129"/>
      <point x="1066" y="1164" type="curve" smooth="yes"/>
      <point x="1066" y="1341"/>
      <point x="871" y="1432"/>
      <point x="670" y="1432" type="curve" smooth="yes"/>
      <point x="425" y="1432"/>
      <point x="293" y="1297"/>
      <point x="293" y="954" type="curve" smooth="yes"/>
    </contour>
    <contour>
      <point x="77" y="753" type="line"/>
      <point x="923" y="753" type="line"/>
      <point x="923" y="956" type="line"/>
      <point x="77" y="956" type="line"/>
    </contour>
    <contour>
      <point x="622" y="753" type="line"/>
      <point x="1468" y="753" type="line"/>
      <point x="1468" y="956" type="line"/>
      <point x="622" y="956" type="line"/>
    </contour>
  </outline>
</glyph>
<glyph name="f_j" format="2">
  <advance width="1309"/>
  <anchor x="324" y="0" name="bottom_1"/>
  <anchor x="973" y="0" name="bottom_2"/>
  <anchor x="648.5" y="0" name="caret_1"/>
  <anchor x="324" y="1524" name="top_1"/>
  <anchor x="973" y="1524" name="top_2"/>
  <outline>
    <contour>
      <point x="293" y="0" type="line"/>
      <point x="655" y="0" type="line"/>
      <point x="655" y="922" type="line"/>
      <point x="486" y="753" type="line"/>
      <point x="923" y="753" type="line"/>
      <point x="923" y="956" type="line"/>
      <point x="486" y="956" type="line"/>
      <point x="655" y="787" type="line"/>
      <point x="655" y="978" type="line" smooth="yes"/>
      <point x="655" y="1138"/>
      <point x="569" y="1352"/>
      <point x="762" y="1352" type="curve" smooth="yes"/>
      <point x="764" y="1352"/>
      <point x="939" y="1348"/>
      <point x="939" y="1289" type="curve" smooth="yes"/>
      <point x="939" y="1268"/>
      <point x="936" y="1242"/>
      <point x="925" y="1225" type="curve"/>
      <point x="1144" y="1225" type="line"/>
      <point x="1158" y="1233"/>
      <point x="1183" y="1268"/>
      <point x="1183" y="1326" type="curve" smooth="yes"/>
      <point x="1183" y="1483"/>
      <point x="1018" y="1571"/>
      <point x="720" y="1571" type="curve" smooth="yes"/>
      <point x="435" y="1571"/>
      <point x="293" y="1436"/>
      <point x="293" y="1093" type="curve" smooth="yes"/>
      <point x="293" y="787" type="line"/>
      <point x="462" y="956" type="line"/>
      <point x="77" y="956" type="line"/>
      <point x="77" y="753" type="line"/>
      <point x="462" y="753" type="line"/>
      <point x="293" y="922" type="line"/>
    </contour>
    <contour>
      <point x="772" y="-583" type="curve" smooth="yes"/>
      <point x="1047" y="-583"/>
      <point x="1199" y="-447"/>
      <point x="1199" y="-104" type="curve" smooth="yes"/>
      <point x="1199" y="956" type="line"/>
      <point x="837" y="956" type="line"/>
      <point x="837" y="11" type="line" smooth="yes"/>
      <point x="837" y="-148"/>
      <point x="891" y="-381"/>
      <point x="775" y="-381" type="curve" smooth="yes"/>
      <point x="772" y="-381"/>
      <point x="662" y="-381"/>
      <point x="662" y="-321" type="curve" smooth="yes"/>
      <point x="662" y="-310"/>
      <point x="662" y="-292"/>
      <point x="676" y="-249" type="curve"/>
      <point x="437" y="-249" type="line"/>
      <point x="435" y="-275"/>
      <point x="435" y="-318"/>
      <point x="435" y="-318" type="curve" smooth="yes"/>
      <point x="435" y="-531"/>
      <point x="602" y="-583"/>
    </contour>
  </outline>
</glyph>
<glyph name="four.dnom" format="2">
  <advance width="867"/>
  <note>
four
</note>
  <outline>
    <contour>
      <point x="486" y="0" type="line"/>
      <point x="731" y="0" type="line"/>
      <point x="731" y="322" type="line"/>
      <point x="584" y="177" type="line"/>
      <point x="866" y="177" type="line"/>
      <point x="866" y="355" type="line"/>
      <point x="584" y="355" type="line"/>
      <point x="731" y="190" type="line"/>
      <point x="731" y="519" type="line"/>
      <point x="486" y="519" type="line"/>
      <point x="486" y="190" type="line"/>
      <point x="599" y="355" type="line"/>
      <point x="207" y="355" type="line"/>
      <point x="275" y="284" type="line"/>
      <point x="371" y="517"/>
      <point x="467" y="749"/>
      <point x="563" y="982" type="curve"/>
      <point x="333" y="982" type="line"/>
      <point x="220" y="714"/>
      <point x="106" y="445"/>
      <point x="-7" y="177" type="curve"/>
      <point x="599" y="177" type="line"/>
      <point x="486" y="322" type="line"/>
    </contour>
  </outline>
</glyph>
<glyph name="four.osf" format="2">
  <advance width="1466"/>
  <outline>
    <contour>
      <point x="839" y="-361" type="line"/>
      <point x="1197" y="-361" type="line"/>
      <point x="1197" y="290" type="line"/>
      <point x="892" y="0" type="line"/>
      <point x="1339" y="0" type="line"/>
      <point x="1339" y="230" type="line"/>
      <point x="898" y="230" type="line"/>
      <point x="1197" y="-107" type="line"/>
      <point x="1197" y="525" type="line"/>
      <point x="839" y="525" type="line"/>
      <point x="839" y="-107" type="line"/>
      <point x="1136" y="230" type="line"/>
      <point x="292" y="230" type="line"/>
      <point x="424" y="10" type="line"/>
      <point x="580" y="364"/>
      <point x="707" y="717"/>
      <point x="833" y="1071" type="curve"/>
      <point x="532" y="1071" type="line"/>
      <point x="405" y="714"/>
      <point x="277" y="357"/>
      <point x="120" y="0" type="curve"/>
      <point x="1142" y="0" type="line"/>
      <point x="839" y="290" type="line"/>
    </contour>
  </outline>
</glyph>
<glyph name="nine.dnom" format="2">
  <advance width="788"/>
  <note>
nine
</note>
  <outline>
    <contour>
      <point x="137" y="-35" type="line"/>
      <point x="296" y="-34"/>
      <point x="424" y="-25"/>
      <point x="512" y="6" type="curve" smooth="yes"/>
      <point x="619" y="44"/>
      <point x="681" y="133"/>
      <point x="708" y="205" type="curve" smooth="yes"/>
      <point x="758" y="341"/>
      <point x="757" y="444"/>
      <point x="757" y="588" type="curve" smooth="yes"/>
      <point x="757" y="803"/>
      <point x="584" y="973"/>
      <point x="367" y="971" type="curve" smooth="yes"/>
      <point x="168" y="970"/>
      <point x="9" y="837"/>
      <point x="9" y="671" type="curve" smooth="yes"/>
      <point x="9" y="461"/>
      <point x="141" y="329"/>
      <point x="352" y="329" type="curve" smooth="yes"/>
      <point x="393" y="329"/>
      <point x="565" y="319"/>
      <point x="595" y="485" type="curve"/>
      <point x="538" y="402" type="line"/>
      <point x="540" y="386"/>
      <point x="536" y="368"/>
      <point x="535" y="352" type="curve" smooth="yes"/>
      <point x="517" y="150"/>
      <point x="368" y="143"/>
      <point x="137" y="143" type="curve"/>
    </contour>
    <contour>
      <point x="370" y="510" type="curve" smooth="yes"/>
      <point x="279" y="510"/>
      <point x="228" y="560"/>
      <point x="228" y="650" type="curve" smooth="yes"/>
      <point x="228" y="741"/>
      <point x="281" y="791"/>
      <point x="375" y="791" type="curve" smooth="yes"/>
      <point x="464" y="791"/>
      <point x="514" y="741"/>
      <point x="514" y="652" type="curve" smooth="yes"/>
      <point x="514" y="561"/>
      <point x="463" y="510"/>
    </contour>
  </outline>
</glyph>
<glyph name="o.t" format="2">
  <advance width="1294"/>
  <note>
o
</note>
  <anchor x="647" y="50" name="bottom"/>
  <anchor x="647" y="503" name="center"/>
  <anchor x="1137" y="10" name="ogonek"/>
  <anchor x="647" y="1006" name="top"/>
  <anchor x="1240" y="1006" name="topright"/>
  <outline>
    <contour>
      <point x="648" y="-35" type="curve" smooth="yes"/>
      <point x="995" y="-35"/>
      <point x="1214" y="173"/>
      <point x="1214" y="498" type="curve" smooth="yes"/>
      <point x="1214" y="826"/>
      <point x="991" y="1040"/>
      <point x="648" y="1040" type="curve" smooth="yes"/>
      <point x="304" y="1040"/>
      <point x="80" y="825"/>
      <point x="80" y="498" type="curve" smooth="yes"/>
      <point x="80" y="172"/>
      <point x="300" y="-35"/>
    </contour>
    <contour>
      <point x="648" y="166" type="curve" smooth="yes"/>
      <point x="532" y="166"/>
      <point x="448" y="310"/>
      <point x="448" y="498" type="curve" smooth="yes"/>
      <point x="448" y="690"/>
      <point x="534" y="840"/>
      <point x="648" y="840" type="curve" smooth="yes"/>
      <point x="761" y="840"/>
      <point x="848" y="687"/>
      <point x="848" y="498" type="curve" smooth="yes"/>
      <point x="848" y="312"/>
      <point x="763" y="166"/>
    </contour>
  </outline>
</glyph>
<glyph name="one.dnom" format="2">
  <advance width="624"/>
  <note>
one
</note>
  <outline>
    <contour>
      <point x="238" y="0" type="line"/>
      <point x="538" y="0" type="line"/>
      <point x="538" y="933" type="line"/>
      <point x="354" y="933" type="line"/>
      <point x="-17" y="491" type="line"/>
      <point x="68" y="413" type="line"/>
      <point x="294" y="624" type="line"/>
      <point x="238" y="631" type="line"/>
    </contour>
  </outline>
</glyph>
<glyph name="one.osf" format="2">
  <advance width="912"/>
  <outline>
    <contour>
      <point x="390" y="0" type="line"/>
      <point x="757" y="0" type="line"/>
      <point x="757" y="1061" type="line"/>
      <point x="586" y="1061" type="line"/>
      <point x="416" y="894"/>
      <point x="334" y="814"/>
      <point x="119" y="654" type="curve"/>
      <point x="202" y="580" type="line"/>
      <point x="262" y="620"/>
      <point x="301" y="642"/>
      <point x="463" y="783" type="curve"/>
      <point x="390" y="778" type="line"/>
    </contour>
  </outline>
</glyph>
<glyph name="slash.fig" format="2">
  <advance width="1234"/>
  <anchor x="617" y="716" name="_center"/>
  <outline>
    <contour>
      <point x="58" y="-134" type="line"/>
      <point x="229" y="-134" type="line"/>
      <point x="1166" y="1566" type="line"/>
      <point x="995" y="1566" type="line"/>
    </contour>
  </outline>
</glyph>
<glyph name="slashlongcomb.case" format="2">
  <anchor x="730" y="721.5" name="_center"/>
  <outline>
    <contour>
      <point x="167" y="-55" type="line"/>
      <point x="362" y="-55" type="line"/>
      <point x="1293" y="1498" type="line"/>
      <point x="1099" y="1498" type="line"/>
    </contour>
  </outline>
</glyph>
<glyph name="two.osf" format="2">
  <advance width="1182"/>
  <outline>
    <contour>
      <point x="119" y="0" type="line"/>
      <point x="1053" y="0" type="line"/>
      <point x="1053" y="244" type="line"/>
      <point x="418" y="188" type="line"/>
      <point x="364" y="153" type="line"/>
      <point x="249" y="23"/>
      <point x="554" y="193"/>
      <point x="814" y="393" type="curve" smooth="yes"/>
      <point x="834" y="408"/>
      <point x="1030" y="528"/>
      <point x="1030" y="732" type="curve" smooth="yes"/>
      <point x="1030" y="908"/>
      <point x="878" y="1043"/>
      <point x="588" y="1043" type="curve" smooth="yes"/>
      <point x="327" y="1043"/>
      <point x="183" y="934"/>
      <point x="183" y="736" type="curve" smooth="yes"/>
      <point x="183" y="732"/>
      <point x="183" y="721"/>
      <point x="183" y="711" type="curve"/>
      <point x="445" y="711" type="line"/>
      <point x="445" y="735" type="line" smooth="yes"/>
      <point x="445" y="839"/>
      <point x="518" y="862"/>
      <point x="589" y="862" type="curve" smooth="yes"/>
      <point x="690" y="862"/>
      <point x="754" y="815"/>
      <point x="754" y="725" type="curve" smooth="yes"/>
      <point x="754" y="602"/>
      <point x="637" y="481"/>
      <point x="472" y="328" type="curve" smooth="yes"/>
    </contour>
  </outline>
</glyph>
<glyph name="zero.dnom" format="2">
  <advance width="1067"/>
  <note>
zero
</note>
  <outline>
    <contour>
      <point x="533" y="-25" type="curve" smooth="yes"/>
      <point x="821" y="-25"/>
      <point x="1050" y="195"/>
      <point x="1050" y="471" type="curve" smooth="yes"/>
      <point x="1050" y="750"/>
      <point x="821" y="971"/>
      <point x="533" y="971" type="curve" smooth="yes"/>
      <point x="246" y="971"/>
      <point x="17" y="750"/>
      <point x="17" y="471" type="curve" smooth="yes"/>
      <point x="17" y="195"/>
      <point x="246" y="-25"/>
    </contour>
    <contour>
      <point x="532" y="158" type="curve" smooth="yes"/>
      <point x="399" y="158"/>
      <point x="294" y="297"/>
      <point x="294" y="471" type="curve" smooth="yes"/>
      <point x="294" y="647"/>
      <point x="399" y="787"/>
      <point x="532" y="787" type="curve" smooth="yes"/>
      <point x="667" y="787"/>
      <point x="775" y="647"/>
      <point x="775" y="471" type="curve" smooth="yes"/>
      <point x="775" y="297"/>
      <point x="667" y="158"/>
    </contour>
  </outline>
</glyph>
<glyph name="zero.osf" format="2">
  <advance width="1344"/>
  <outline>
    <contour>
      <point x="672" y="-40" type="curve" smooth="yes"/>
      <point x="977" y="-40"/>
      <point x="1216" y="197"/>
      <point x="1216" y="500" type="curve" smooth="yes"/>
      <point x="1216" y="803"/>
      <point x="977" y="1040"/>
      <point x="672" y="1040" type="curve" smooth="yes"/>
      <point x="367" y="1040"/>
      <point x="128" y="803"/>
      <point x="128" y="500" type="curve" smooth="yes"/>
      <point x="128" y="197"/>
      <point x="367" y="-40"/>
    </contour>
    <contour>
      <point x="672" y="210" type="curve" smooth="yes"/>
      <point x="508" y="210"/>
      <point x="405" y="322"/>
      <point x="405" y="500" type="curve" smooth="yes"/>
      <point x="405" y="678"/>
      <point x="508" y="790"/>
      <point x="672" y="790" type="curve" smooth="yes"/>
      <point x="835" y="790"/>
      <point x="939" y="678"/>
      <point x="939" y="500" type="curve" smooth="yes"/>
      <point x="939" y="322"/>
      <point x="836" y="210"/>
    </contour>
  </outline>
</glyph>
